<?xml version="1.0" encoding="UTF-8" standalone="no"?>
<!DOCTYPE svg PUBLIC "-//W3C//DTD SVG 1.1//EN" "http://www.w3.org/Graphics/SVG/1.1/DTD/svg11.dtd">
<svg xmlns="http://www.w3.org/2000/svg" version="1.1" viewBox="0 0 404 324">
<path fill="#333333" d="M 403.49,72.31 Q 403.44,78.00 403.67,83.23 A 0.98,0.97 88.9 0 1 402.70,84.25 L 2.32,84.25 A 0.82,0.82 -2.1 0 1 1.50,83.43 L 1.50,4.32 A 0.88,0.88 68.6 0 1 2.38,3.44 Q 180.36,3.54 358.77,3.50 Q 370.53,3.50 376.10,4.94 Q 395.22,9.88 402.03,29.28 Q 403.25,32.76 403.33,37.41 Q 403.65,54.86 403.49,72.31 Z"/>
<rect fill="#333333" x="118.01" y="124.25" width="285.52" height="82.00" rx="0.41"/>
<path fill="#333333" d="M 402.93,254.75 Q 402.78,270.58 402.75,286.42 Q 402.75,291.69 401.59,295.43 Q 394.52,318.22 369.50,321.75 Q 366.24,322.21 354.25,322.20 Q 177.87,322.00 1.31,322.00 A 0.56,0.56 -85.9 0 1 0.75,321.44 L 0.75,242.09 A 0.59,0.59 87.1 0 1 1.34,241.50 L 401.98,241.50 A 0.79,0.79 89.3 0 1 402.77,242.27 Q 402.98,249.16 402.93,254.75 Z"/>
</svg>
