<?xml version="1.0" encoding="UTF-8" standalone="no"?> <svg xmlns="http://www.w3.org/2000/svg" xmlns:xlink="http://www.w3.org/1999/xlink" viewBox="0 0 64 64"><defs><style>.cls-1{fill:url(#linear-gradient);}.cls-2{fill:url(#linear-gradient-2);}.cls-3{fill:url(#linear-gradient-3);}.cls-4{fill:url(#linear-gradient-4);}.cls-5{fill:url(#linear-gradient-5);}.cls-6{fill:url(#linear-gradient-6);}.cls-7{fill:url(#linear-gradient-7);}.cls-8{fill:url(#linear-gradient-8);}</style><linearGradient id="linear-gradient" x1="49.83" y1="27.89" x2="62.04" y2="27.89" gradientUnits="userSpaceOnUse"><stop offset="0" stop-color="#17a6d7"/><stop offset="1" stop-color="#9d31fe"/></linearGradient><linearGradient id="linear-gradient-2" x1="44.23" y1="27.89" x2="54.12" y2="27.89" xlink:href="#linear-gradient"/><linearGradient id="linear-gradient-3" x1="38.63" y1="27.89" x2="46.2" y2="27.89" xlink:href="#linear-gradient"/><linearGradient id="linear-gradient-4" x1="1.96" y1="27.89" x2="14.16" y2="27.89" xlink:href="#linear-gradient"/><linearGradient id="linear-gradient-5" x1="9.88" y1="27.91" x2="19.77" y2="27.91" xlink:href="#linear-gradient"/><linearGradient id="linear-gradient-6" x1="17.8" y1="27.9" x2="25.35" y2="27.9" xlink:href="#linear-gradient"/><linearGradient id="linear-gradient-7" x1="25.81" y1="27.88" x2="38.29" y2="27.88" xlink:href="#linear-gradient"/><linearGradient id="linear-gradient-8" x1="30.05" y1="48.48" x2="34.05" y2="48.48" xlink:href="#linear-gradient"/></defs><g id="Layer_38" data-name="Layer 38"><path class="cls-1" d="M53.26,6.69a2,2,0,0,0-2.83,2.82,26,26,0,0,1,0,36.77,2,2,0,0,0,1.42,3.42,2,2,0,0,0,1.41-.59A30,30,0,0,0,53.26,6.69Z"/><path class="cls-2" d="M47.66,12.29a2,2,0,0,0-2.83,2.83,18.09,18.09,0,0,1,0,25.56,2,2,0,0,0,1.42,3.42,2,2,0,0,0,1.41-.59A22.1,22.1,0,0,0,47.66,12.29Z"/><path class="cls-3" d="M42.06,17.89a2,2,0,0,0-2.83,2.83,10.16,10.16,0,0,1,0,14.36,2,2,0,1,0,2.83,2.83A14.17,14.17,0,0,0,42.06,17.89Z"/><path class="cls-4" d="M13.57,9.51a2,2,0,0,0-2.83-2.82,30,30,0,0,0,0,42.42,2,2,0,0,0,1.41.59,2,2,0,0,0,1.42-3.42A26,26,0,0,1,13.57,9.51Z"/><path class="cls-5" d="M19.17,15.12a2,2,0,1,0-2.83-2.83,22.1,22.1,0,0,0,0,31.22,2,2,0,0,0,2.83-2.83A18.09,18.09,0,0,1,19.17,15.12Z"/><path class="cls-6" d="M24.77,17.89a2,2,0,0,0-2.83,0,14.17,14.17,0,0,0,0,20,2,2,0,0,0,2.83-2.83,10.16,10.16,0,0,1,0-14.36A2,2,0,0,0,24.77,17.89Z"/><path class="cls-7" d="M32.05,21.66a6.25,6.25,0,0,0-6.24,6.24c.29,8.26,12.19,8.25,12.48,0A6.25,6.25,0,0,0,32.05,21.66Zm0,8.48a2.24,2.24,0,0,1,0-4.48A2.24,2.24,0,0,1,32.05,30.14Z"/><path class="cls-8" d="M32.05,39.05a2,2,0,0,0-2,2V55.9a2,2,0,0,0,4,0V41.05A2,2,0,0,0,32.05,39.05Z"/></g></svg>