<svg xmlns="http://www.w3.org/2000/svg" xmlns:xlink="http://www.w3.org/1999/xlink" viewBox="0 0 766.02 480.35"><defs><style>.cls-1{fill:#f7f7f7;}.cls-2{fill:#fabd6a;fill-rule:evenodd;}.cls-10,.cls-11,.cls-12,.cls-13,.cls-14,.cls-18,.cls-3,.cls-4,.cls-5,.cls-6,.cls-7,.cls-8{stroke-miterlimit:10;}.cls-11,.cls-13,.cls-14,.cls-18,.cls-3,.cls-4,.cls-7{stroke-width:2px;}.cls-3{fill:url(#linear-gradient);stroke:url(#linear-gradient-2);}.cls-4{fill:url(#linear-gradient-3);stroke:url(#linear-gradient-4);}.cls-10,.cls-12,.cls-5,.cls-6{stroke-width:4px;}.cls-5{fill:url(#linear-gradient-5);stroke:url(#linear-gradient-6);}.cls-6{fill:url(#linear-gradient-7);stroke:url(#linear-gradient-8);}.cls-7{fill:url(#linear-gradient-9);stroke:url(#linear-gradient-10);}.cls-18,.cls-8{fill:none;}.cls-8{stroke:gray;}.cls-9{fill:gray;}.cls-10{fill:url(#linear-gradient-11);stroke:url(#linear-gradient-12);}.cls-11{fill:url(#linear-gradient-13);stroke:url(#linear-gradient-14);}.cls-12{fill:url(#linear-gradient-15);stroke:url(#linear-gradient-16);}.cls-13{fill:url(#linear-gradient-17);stroke:url(#linear-gradient-18);}.cls-14{fill:url(#linear-gradient-19);stroke:url(#linear-gradient-20);}.cls-15{fill:#999;}.cls-16{font-size:19.12px;fill:#1a1a1a;font-family:Avenir-Medium, Avenir;font-weight:500;}.cls-17{font-size:35px;}.cls-17,.cls-19{fill:#333;font-family:Avenir-Black, Avenir;font-weight:800;}.cls-18{stroke:#333;}.cls-19{font-size:20px;}</style><linearGradient id="linear-gradient" x1="-622.81" y1="-443.39" x2="-649.73" y2="-579.95" gradientTransform="translate(-80.9 864.25) rotate(85.26)" gradientUnits="userSpaceOnUse"><stop offset="0" stop-color="#333"/><stop offset="1"/></linearGradient><linearGradient id="linear-gradient-2" x1="305.88" y1="187.89" x2="447.05" y2="187.89" gradientTransform="translate(525.12 -205.72) rotate(84.17)" gradientUnits="userSpaceOnUse"><stop offset="0" stop-color="#0071bc"/><stop offset="0.48" stop-color="#00b5dc"/><stop offset="1" stop-color="#29abe2"/></linearGradient><linearGradient id="linear-gradient-3" x1="337.05" y1="177.91" x2="422.15" y2="177.91" gradientTransform="matrix(1, 0, 0, 1, 0, 0)" xlink:href="#linear-gradient"/><linearGradient id="linear-gradient-4" x1="336.05" y1="177.91" x2="423.15" y2="177.91" gradientTransform="matrix(1, 0, 0, 1, 0, 0)" xlink:href="#linear-gradient-2"/><linearGradient id="linear-gradient-5" x1="361.57" y1="177.96" x2="402.12" y2="177.96" gradientUnits="userSpaceOnUse"><stop offset="0" stop-color="#29abe2"/><stop offset="0.21" stop-color="#1a95d4"/><stop offset="0.47" stop-color="#0b81c7"/><stop offset="0.74" stop-color="#0375bf"/><stop offset="1" stop-color="#0071bc"/></linearGradient><linearGradient id="linear-gradient-6" x1="359.57" y1="177.96" x2="404.12" y2="177.96" gradientUnits="userSpaceOnUse"><stop offset="0" stop-color="aqua"/><stop offset="0.04" stop-color="#07f0fa"/><stop offset="0.12" stop-color="#16d2f0"/><stop offset="0.21" stop-color="#20bce8"/><stop offset="0.29" stop-color="#27afe4"/><stop offset="0.37" stop-color="#29abe2"/><stop offset="0.64" stop-color="#14d6f1"/><stop offset="0.87" stop-color="#05f4fb"/><stop offset="1" stop-color="aqua"/></linearGradient><linearGradient id="linear-gradient-7" x1="-607.88" y1="-157.05" x2="-551.54" y2="-241.06" gradientTransform="matrix(0.62, 0.78, -0.78, 0.62, 729.71, 741.22)" gradientUnits="userSpaceOnUse"><stop offset="0" stop-color="#22b573"/><stop offset="0.25" stop-color="#20b270"/><stop offset="0.47" stop-color="#1ca768"/><stop offset="0.68" stop-color="#14955a"/><stop offset="0.87" stop-color="#097d47"/><stop offset="1" stop-color="#006837"/></linearGradient><linearGradient id="linear-gradient-8" x1="472.24" y1="163.55" x2="577.38" y2="163.55" gradientTransform="translate(230.89 -300.98) rotate(40.37)" gradientUnits="userSpaceOnUse"><stop offset="0" stop-color="lime"/><stop offset="0" stop-color="#00ff01"/><stop offset="0.07" stop-color="#00e530"/><stop offset="0.13" stop-color="#00cf57"/><stop offset="0.19" stop-color="#00bf76"/><stop offset="0.26" stop-color="#00b38b"/><stop offset="0.32" stop-color="#00ab99"/><stop offset="0.37" stop-color="#00a99d"/><stop offset="0.38" stop-color="#00aa9c"/><stop offset="0.6" stop-color="#00ce59"/><stop offset="0.78" stop-color="#00e929"/><stop offset="0.92" stop-color="#00f90b"/><stop offset="1" stop-color="lime"/></linearGradient><linearGradient id="linear-gradient-9" x1="499.88" y1="154.31" x2="560.69" y2="154.31" gradientTransform="matrix(1, 0, 0, 1, 0, 0)" xlink:href="#linear-gradient"/><linearGradient id="linear-gradient-10" x1="498.88" y1="154.31" x2="561.69" y2="154.31" gradientTransform="matrix(1, 0, 0, 1, 0, 0)" xlink:href="#linear-gradient-2"/><linearGradient id="linear-gradient-11" x1="161.04" y1="109.28" x2="293.2" y2="109.28" gradientTransform="matrix(1, 0, 0, 1, 0, 0)" xlink:href="#linear-gradient-7"/><linearGradient id="linear-gradient-12" x1="159.04" y1="109.28" x2="295.2" y2="109.28" gradientTransform="matrix(1, 0, 0, 1, 0, 0)" xlink:href="#linear-gradient-8"/><linearGradient id="linear-gradient-13" x1="172.37" y1="100.17" x2="259.25" y2="100.17" gradientTransform="matrix(1, 0, 0, 1, 0, 0)" xlink:href="#linear-gradient"/><linearGradient id="linear-gradient-14" x1="171.37" y1="100.17" x2="260.25" y2="100.17" gradientTransform="matrix(1, 0, 0, 1, 0, 0)" xlink:href="#linear-gradient-2"/><linearGradient id="linear-gradient-15" x1="200.8" y1="113.64" x2="221.05" y2="78.57" gradientTransform="matrix(1, 0, 0, 1, 0, 0)" xlink:href="#linear-gradient-7"/><linearGradient id="linear-gradient-16" x1="193.02" y1="96.17" x2="227.01" y2="96.17" gradientTransform="matrix(1, 0, 0, 1, 0, 0)" xlink:href="#linear-gradient-8"/><linearGradient id="linear-gradient-17" x1="-2924.94" y1="-832.79" x2="-2830.7" y2="-832.79" gradientTransform="translate(138.15 -2905.61) rotate(-112.05)" xlink:href="#linear-gradient"/><linearGradient id="linear-gradient-18" x1="398.74" y1="74.34" x2="494.96" y2="74.34" gradientTransform="translate(3.95 -20.75) rotate(2.67)" xlink:href="#linear-gradient-2"/><linearGradient id="linear-gradient-19" x1="415.77" y1="83.56" x2="473.38" y2="83.56" gradientTransform="matrix(1, 0, 0, 1, 0, 0)" xlink:href="#linear-gradient"/><linearGradient id="linear-gradient-20" x1="414.77" y1="83.56" x2="474.38" y2="83.56" gradientTransform="matrix(1, 0, 0, 1, 0, 0)" xlink:href="#linear-gradient-2"/></defs><g id="Layer_2" data-name="Layer 2"><g id="Layer_1-2" data-name="Layer 1"><rect class="cls-1" x="1.88" y="82.03" width="763.8" height="398.32" rx="27.11"/><path class="cls-2" d="M766,291.21V27.11A27.11,27.11,0,0,0,738.9,0H29.32A27.11,27.11,0,0,0,2.21,27.11v264.1Z"/><circle class="cls-3" cx="376.46" cy="187.89" r="69.58" transform="translate(151.28 543.31) rotate(-84.17)"/><circle class="cls-4" cx="379.6" cy="177.91" r="42.54"/><path class="cls-5" d="M399.51,159.08l-35.77,4.15c-2,.22-2.7,1.62-1.78,3.18a4,4,0,0,0,.24.38l21.48,28.9c1.27,1.72,3,1.52,3.85-.44l14-32.42.27-.63C402.67,160.24,401.63,158.84,399.51,159.08Z"/><circle class="cls-6" cx="524.81" cy="163.55" r="50.57" transform="translate(19.03 378.86) rotate(-40.37)"/><circle class="cls-7" cx="530.28" cy="154.31" r="30.4"/><rect class="cls-8" x="524.46" y="139.81" width="20.44" height="20.44" transform="translate(-19.94 178) rotate(-18.56)"/><rect class="cls-9" x="518.14" y="139.9" width="7.56" height="7.56" transform="translate(-18.59 173.61) rotate(-18.56)"/><rect class="cls-9" x="524.55" y="159.01" width="7.56" height="7.56" transform="translate(-24.34 176.64) rotate(-18.56)"/><rect class="cls-9" x="537.25" y="133.48" width="7.56" height="7.56" transform="translate(-15.55 179.36) rotate(-18.56)"/><rect class="cls-9" x="543.66" y="152.59" width="7.56" height="7.56" transform="translate(-21.3 182.39) rotate(-18.56)"/><circle class="cls-10" cx="227.12" cy="109.28" r="66.07"/><circle class="cls-11" cx="215.81" cy="100.17" r="43.43"/><path class="cls-12" d="M224.72,116.25l-3.07-4.9L218.91,107a1.88,1.88,0,0,0-2.49-.66l-3.81,2a1.89,1.89,0,0,1-2.4-.53c-1.23-1.65-2.78-3.38-5.13-9.58s-2.35-8.53-2.52-10.58a1.89,1.89,0,0,1,1.44-2l4.19-1a1.89,1.89,0,0,0,1.42-2.15l-.82-4.92-1-5.86a1.9,1.9,0,0,0-2.1-1.57l-4.4.53a4.63,4.63,0,0,0-3,1.62c-2.51,3-6.12,10.57.61,28.29s14.44,21,18.33,21.56a4.64,4.64,0,0,0,3.35-.81l3.64-2.53A1.89,1.89,0,0,0,224.72,116.25Z"/><circle class="cls-13" cx="446.85" cy="74.34" r="47.11" transform="translate(-2.98 20.91) rotate(-2.67)"/><circle class="cls-14" cx="444.57" cy="83.56" r="28.8"/><path class="cls-15" d="M457.3,88.65A7.72,7.72,0,1,0,447,92.32,7.71,7.71,0,0,0,457.3,88.65Zm-12.08-5.71a5.65,5.65,0,1,1,2.69,7.52A5.64,5.64,0,0,1,445.22,82.94Z"/><polygon class="cls-15" points="443.2 86.75 443.83 88.88 429.95 95.43 428.81 92.33 443.2 86.75"/><text class="cls-16" transform="translate(85.89 378.84)">Empower your community with peer-to-peer applications and tools.</text><text class="cls-17" transform="translate(103.03 346.41)">THE THREEFOLD MARKETPLACE</text><rect class="cls-18" x="239.96" y="414.17" width="285.54" height="38.26" rx="19.13"/><text class="cls-19" transform="translate(303.31 440.82)">TELL ME MORE!</text></g></g></svg>