<svg id="Layer_1" data-name="Layer 1" xmlns="http://www.w3.org/2000/svg" viewBox="0 0 400 68.62"><defs><style>.cls-1{fill:#5e5e5e;fill-rule:evenodd;}</style></defs><title>coinmarketcapblack</title><path class="cls-1" d="M64.44,40.46a3.61,3.61,0,0,1-3.54.22c-1.31-.7-2-2.35-2-4.65V29.15c0-3.31-1.38-5.68-3.68-6.31-3.89-1.09-6.82,3.46-7.92,5.17L40.42,38.64v-13c-.08-3-1.1-4.78-3-5.32-1.28-.36-3.19-.21-5,2.5L17,46.42a24.91,24.91,0,0,1-3.12-12.11c0-14.21,11.92-25.77,26.58-25.77S67,20.1,67,34.31c0,0,0,0,0,.07v.07c.14,2.75-.8,4.94-2.56,6Zm8.46-6.15h0v-.14C72.82,16.86,58.28,2.81,40.41,2.81S7.93,16.94,7.93,34.31s14.57,31.5,32.49,31.5a32.91,32.91,0,0,0,22.08-8.4,2.8,2.8,0,0,0,.16-4,3,3,0,0,0-4.13-.19l0,0A27.14,27.14,0,0,1,20.64,51.5L34.51,30.23V40c0,4.71,1.91,6.23,3.52,6.68s4.06.14,6.63-3.86l7.63-11.81c.25-.38.47-.71.68-1v6c0,4.4,1.84,7.92,5.06,9.66a9.69,9.69,0,0,0,9.53-.37C71.16,43.15,73.1,39.14,72.9,34.31Zm45.23-10.76a3,3,0,0,1,1.45,2.37,2.77,2.77,0,0,1-2.75,2.67,3.43,3.43,0,0,1-1-.2,10.89,10.89,0,0,0-6.19-2c-5.4,0-9.15,4.24-9.15,9.48s3.75,9.42,9.15,9.42a10.37,10.37,0,0,0,6.91-2.67,2.9,2.9,0,0,1,1.62-.5,2.54,2.54,0,0,1,2.6,2.52,2.65,2.65,0,0,1-1.3,2.16,15.79,15.79,0,0,1-9.78,3.53A14.86,14.86,0,0,1,94.58,35.7a14.85,14.85,0,0,1,15.07-14.62A15.62,15.62,0,0,1,118.13,23.55Zm15.21,6.1a10.4,10.4,0,0,1,10.44,10.23,10.58,10.58,0,0,1-10.44,10.43,10.78,10.78,0,0,1-10.87-10.43C122.47,34.23,127.41,29.65,133.34,29.65Zm-.06,15.62c2.5,0,4.63-2.27,4.63-5.34a4.66,4.66,0,0,0-4.63-5,4.76,4.76,0,0,0-4.94,5A5.09,5.09,0,0,0,133.28,45.27Zm14.07,1.92V32.77a2.9,2.9,0,0,1,2.91-2.87,3,3,0,0,1,3,2.87V47.19a3,3,0,0,1-3,2.87A2.9,2.9,0,0,1,147.35,47.19Zm-.47-22.73a3.38,3.38,0,0,1,3.38-3.38,3.43,3.43,0,0,1,3.48,3.38,3.38,3.38,0,0,1-3.48,3.27A3.32,3.32,0,0,1,146.88,24.46Zm17.6,14.91v7.82a3,3,0,0,1-3,2.87,2.91,2.91,0,0,1-2.92-2.87V32.12a2.28,2.28,0,0,1,2.29-2.22,2.23,2.23,0,0,1,2.24,2.22,8.89,8.89,0,0,1,6.44-2.47c5.88,0,8.48,4.23,8.48,9v8.52a3,3,0,0,1-3,2.87,2.91,2.91,0,0,1-2.92-2.87V39.37c0-2.46-.31-4.53-4-4.53-2.6,0-3.69,2.07-3.69,4.53Zm32.68,3a1.92,1.92,0,0,1-1.51-.71l-6.86-7.1V47.19a3,3,0,0,1-3,2.87,2.9,2.9,0,0,1-2.91-2.87v-25a1.16,1.16,0,0,1,1.09-.71,2,2,0,0,1,1.25.71l10.92,11.74a1.06,1.06,0,0,0,1.87,0L209,22.14a2,2,0,0,1,1.24-.71,1.17,1.17,0,0,1,1.1.71v25a2.9,2.9,0,0,1-2.91,2.87,3,3,0,0,1-3-2.87V34.54l-6.86,7.1a1.87,1.87,0,0,1-1.4.71Zm28.25,2.92a5.08,5.08,0,0,0,4.89-5.34,4.89,4.89,0,0,0-4.89-5.09,4.76,4.76,0,0,0-4.68,5.09C220.73,42.9,222.81,45.27,225.41,45.27Zm6.24,2.57-.1-.65c-1.15,2.16-4.79,3.12-7.13,3.12-5.51,0-9.56-4.79-9.56-10.43a9.89,9.89,0,0,1,9.88-10.23,9.32,9.32,0,0,1,6.81,3.12l.1-.65a2.23,2.23,0,0,1,2.24-2.22,2.27,2.27,0,0,1,2.28,2.22V47.84a2.27,2.27,0,0,1-2.28,2.22,2.23,2.23,0,0,1-2.24-2.22Zm20.82-13h-.62c-3.69.2-4.42,2.22-4.42,4.53v7.82a3,3,0,0,1-3,2.87,2.9,2.9,0,0,1-2.91-2.87V32.12a2.28,2.28,0,0,1,2.29-2.22,2.23,2.23,0,0,1,2.23,2.22,8.49,8.49,0,0,1,5.77-2.47h.57a2.6,2.6,0,1,1,.05,5.19Zm22.65,11a2.45,2.45,0,0,1,.41,1.36,3,3,0,0,1-2.91,2.82A3.68,3.68,0,0,1,270,48.5L263.27,41v6.2a3,3,0,0,1-3,2.87,2.9,2.9,0,0,1-2.91-2.87V24.31a2.91,2.91,0,0,1,2.91-2.88,3,3,0,0,1,3,2.88V38.57L270,31.41a3.69,3.69,0,0,1,2.55-1.51,2.9,2.9,0,0,1,2.81,2.77A2.37,2.37,0,0,1,275,34l-5.35,5.6,5.46,6.3Zm11.52-10.94c-1.62,0-4.22.81-4.22,3.17h8.48c0-2.41-2.7-3.17-4.27-3.17Zm7.69,6.75H282.42c0,3.38,3.38,3.88,4.89,3.88a10.88,10.88,0,0,0,3.85-.7,3,3,0,0,1,1.51-.46,2.28,2.28,0,0,1,1.09,4.34,11.17,11.17,0,0,1-6.4,1.56c-5.92,0-10.86-3.07-10.86-10.18,0-5.59,3-10.48,10-10.48,5.67,0,10,3.53,10.09,9.83a2.27,2.27,0,0,1-2.29,2.21Zm16.35,8.62h-1.61c-4.47,0-7.07-1.86-7.07-8.57v-6.9h-1.51a2.6,2.6,0,1,1,0-5.19H302V24.31a2.91,2.91,0,0,1,2.91-2.88,3,3,0,0,1,3,2.88v5.34h2.45a2.6,2.6,0,1,1,0,5.19h-2.45v5.79c0,3.84.21,4.64,2,4.64h.83a2.57,2.57,0,0,1,2.6,2.52,2.61,2.61,0,0,1-2.6,2.52Zm28.47-26.76a3,3,0,0,1,1.45,2.37,2.77,2.77,0,0,1-2.75,2.67,3.43,3.43,0,0,1-1-.2,10.89,10.89,0,0,0-6.19-2c-5.4,0-9.15,4.24-9.15,9.48s3.74,9.42,9.15,9.42a10.42,10.42,0,0,0,6.92-2.67,2.86,2.86,0,0,1,1.61-.5,2.54,2.54,0,0,1,2.6,2.52,2.65,2.65,0,0,1-1.3,2.16,15.79,15.79,0,0,1-9.78,3.53A14.86,14.86,0,0,1,315.6,35.7a14.85,14.85,0,0,1,15.07-14.62,15.59,15.59,0,0,1,8.48,2.47ZM354,45.27a5.08,5.08,0,0,0,4.89-5.34A4.89,4.89,0,0,0,354,34.84a4.76,4.76,0,0,0-4.68,5.09c0,3,2.08,5.34,4.68,5.34Zm6.24,2.57-.1-.65c-1.15,2.16-4.78,3.12-7.13,3.12-5.51,0-9.56-4.79-9.56-10.43a9.89,9.89,0,0,1,9.88-10.23,9.32,9.32,0,0,1,6.81,3.12l.1-.65a2.23,2.23,0,0,1,2.24-2.22,2.28,2.28,0,0,1,2.29,2.22V47.84a2.28,2.28,0,0,1-2.29,2.22A2.23,2.23,0,0,1,360.28,47.84ZM381,45.27c2.6,0,4.68-2.37,4.68-5.34A4.76,4.76,0,0,0,381,34.84a4.89,4.89,0,0,0-4.89,5.09A5.09,5.09,0,0,0,381,45.27Zm-4.89,3.38v7.16a3,3,0,0,1-3,2.87,2.9,2.9,0,0,1-2.91-2.87V32.12a2.26,2.26,0,1,1,4.52.2,9.59,9.59,0,0,1,6.91-2.67,9.89,9.89,0,0,1,9.88,10.23c0,5.64-4.05,10.43-9.56,10.43a11.06,11.06,0,0,1-5.88-1.66Z"/></svg>