<svg id="Layer_2" data-name="Layer 2" xmlns="http://www.w3.org/2000/svg" viewBox="0 0 400 68.62"><defs><style>.cls-1{fill:#5e5e5e;fill-rule:evenodd;}</style></defs><title>coingeckoblack</title><path class="cls-1" d="M107.09,5.52A28.8,28.8,0,0,0,83.24,50.45a38.27,38.27,0,0,0,3.48-17c-.49-9.41,8-13.83,12.53-14.73a20.6,20.6,0,0,1,8.59.26,5.58,5.58,0,0,1,2.58-.62,5.68,5.68,0,0,1,5.11,3.2c1.33.47,2.73.92,4.08,1.36h0a53.67,53.67,0,0,1,6.77,2.49c2.35,1.27,5.89,5,2.84,9.75-1.46.72-10,4.83-14.06,5.12a13,13,0,0,1-7.48-1.71c-.36,1.31,4.23,2.61,7.48,2.61,5.41,0,12.53-4.87,14-5.92l-.13.2-.13.18a35.1,35.1,0,0,1-5.06,5.21h0c-3.46,3.13-7.42,6.71-10,12.49-2.46,5.54-2.29,8.21-1.61,9.26a28.79,28.79,0,0,0-5.19-57.11ZM75.5,34.31a31.59,31.59,0,1,1,31.59,31.58A31.58,31.58,0,0,1,75.5,34.31ZM103,32.69A5.68,5.68,0,1,0,97.35,27,5.68,5.68,0,0,0,103,32.69Zm21.63,0a1.27,1.27,0,1,1-1.26-1.26A1.27,1.27,0,0,1,124.66,32.69ZM103,30.8A3.79,3.79,0,1,0,99.25,27,3.79,3.79,0,0,0,103,30.8Zm58.83-5.75c3.57,0,5.4,2.07,6.13,4.9l4.31,0c-.52-5.31-4.9-8.38-10.45-8.42-7.38,0-11.78,5.88-11.78,12.91s4.41,12.9,11.79,12.9c6,0,10.14-4.06,10.48-10h-4.21c-.34,3.59-2.44,6.45-6.27,6.45-5.28,0-7.49-4.66-7.49-9.38S156.58,25.05,161.86,25.05Zm13,12.74c0-5.45,3.27-9.38,9-9.38s9,3.93,9,9.38-3.28,9.42-9,9.42S174.89,43.28,174.89,37.79Zm14.07,0c0-3.06-1.55-6.27-5.07-6.27s-5.07,3.21-5.07,6.27,1.55,6.32,5.07,6.32S189,40.9,189,37.79ZM200.2,22.1h-3.93v3.73h3.93Zm0,6.8h-3.93V46.73h3.93Zm4.28,0h3.72v2.62l.07.07a6.36,6.36,0,0,1,5.55-3.18c3.87,0,6.32,2.07,6.32,6.07V46.73H216.2V35.52c-.07-2.8-1.17-4-3.48-4-2.62,0-4.31,2.07-4.31,4.69V46.73h-3.93Zm39.07,17.83h2.76v-13H235.83V37h6.55c-.07,4.18-2.48,6.83-6.9,6.76-5.27,0-7.48-4.66-7.48-9.38S230.21,25,235.48,25c3.11,0,5.93,1.66,6.35,4.9H246c-.66-5.55-5.19-8.42-10.56-8.42-7.37,0-11.79,5.88-11.79,12.9s4.42,12.91,11.8,12.9a8.87,8.87,0,0,0,7.41-3.48Zm10-7.9c0,2.79,1.52,5.28,4.79,5.28a4.15,4.15,0,0,0,4.35-3h3.72c-.86,3.9-4.17,6.07-8.07,6.07-5.58,0-8.72-3.9-8.72-9.38,0-5.07,3.32-9.42,8.62-9.42,5.62,0,9.07,5.07,8.42,10.42Zm9.18-2.59c-.14-2.48-1.83-4.72-4.49-4.72a4.67,4.67,0,0,0-4.69,4.72Zm14.9-4.72a3.78,3.78,0,0,1,4.07,3.34h3.93c-.38-4.38-3.9-6.45-8-6.45-5.86,0-8.79,4.21-8.79,9.59s3.06,9.21,8.65,9.21c4.6,0,7.45-2.55,8.18-7.17h-3.93c-.39,2.55-2,4.07-4.25,4.07C274,44.11,272.7,41,272.7,38,272.7,32.59,275.55,31.52,277.6,31.52Zm11.32-9.42h3.93v14l7.1-7.2h4.83L298,35.45l7.49,11.28h-4.8l-5.45-8.66-2.35,2.28v6.38h-3.92Zm26.58,6.31c-5.73,0-9,3.93-9,9.38s3.27,9.42,9,9.42,9-4,9-9.42S321.22,28.41,315.5,28.41Zm0,3.11c3.52,0,5.07,3.21,5.07,6.27s-1.55,6.32-5.07,6.32-5.07-3.25-5.07-6.32S312,31.52,315.5,31.52Z"/></svg>