<svg xmlns="http://www.w3.org/2000/svg" xmlns:xlink="http://www.w3.org/1999/xlink" viewBox="0 0 469.22 500"><defs><style>.cls-1{isolation:isolate;}.cls-2{fill:#66efc5;}.cls-3{fill-rule:evenodd;fill:url(#linear-gradient);}.cls-4{font-size:30px;font-family:Avenir-Black, Avenir;}.cls-4,.cls-5{fill:#333;font-weight:800;}.cls-5{font-size:20px;font-family:Avenir-Heavy, Avenir;}.cls-6{fill:#f2f2f2;}.cls-10,.cls-11,.cls-12,.cls-13,.cls-14,.cls-15,.cls-16,.cls-17,.cls-18,.cls-19,.cls-20,.cls-21,.cls-22,.cls-23,.cls-24,.cls-25,.cls-26,.cls-27,.cls-28,.cls-6,.cls-7,.cls-8,.cls-9{stroke:#662d91;stroke-miterlimit:10;}.cls-7{opacity:0.4;mix-blend-mode:multiply;fill:url(#linear-gradient-2);}.cls-8{fill:url(#linear-gradient-3);}.cls-9{fill:url(#linear-gradient-4);}.cls-10{fill:url(#linear-gradient-5);}.cls-11{fill:url(#linear-gradient-6);}.cls-12{fill:url(#linear-gradient-7);}.cls-13{fill:url(#linear-gradient-8);}.cls-14{fill:url(#linear-gradient-9);}.cls-15{fill:url(#linear-gradient-10);}.cls-16{fill:url(#linear-gradient-11);}.cls-17{fill:url(#linear-gradient-12);}.cls-18{fill:url(#linear-gradient-13);}.cls-19{fill:url(#linear-gradient-14);}.cls-20{fill:url(#linear-gradient-15);}.cls-21{fill:url(#linear-gradient-16);}.cls-22{fill:url(#linear-gradient-17);}.cls-23{fill:url(#linear-gradient-18);}.cls-24{fill:url(#linear-gradient-19);}.cls-25{fill:url(#linear-gradient-20);}.cls-26{fill:url(#linear-gradient-21);}.cls-27{fill:url(#linear-gradient-22);}.cls-28{fill:url(#linear-gradient-23);}</style><linearGradient id="linear-gradient" x1="234.61" y1="318.52" x2="234.61" gradientUnits="userSpaceOnUse"><stop offset="0" stop-color="#7df8ff"/><stop offset="0.14" stop-color="#95def9"/><stop offset="0.29" stop-color="#a9c9f5"/><stop offset="0.46" stop-color="#b7baf2"/><stop offset="0.66" stop-color="#bfb1f0"/><stop offset="0.96" stop-color="#c2aeef"/></linearGradient><linearGradient id="linear-gradient-2" x1="266.31" y1="192.55" x2="307.71" y2="192.55" gradientUnits="userSpaceOnUse"><stop offset="0" stop-color="#66efc5"/><stop offset="0.29" stop-color="#65efc8"/><stop offset="0.52" stop-color="#62efd2"/><stop offset="0.73" stop-color="#5deee3"/><stop offset="0.93" stop-color="#56eefa"/><stop offset="0.96" stop-color="#5ef"/></linearGradient><linearGradient id="linear-gradient-3" x1="300.51" y1="240.77" x2="312.25" y2="240.77" xlink:href="#linear-gradient-2"/><linearGradient id="linear-gradient-4" x1="304.57" y1="231" x2="314.87" y2="231" xlink:href="#linear-gradient-2"/><linearGradient id="linear-gradient-5" x1="272.67" y1="209.15" x2="307" y2="209.15" xlink:href="#linear-gradient-2"/><linearGradient id="linear-gradient-6" x1="284.69" y1="202.85" x2="325.13" y2="202.85" xlink:href="#linear-gradient-2"/><linearGradient id="linear-gradient-7" x1="301.36" y1="195.65" x2="325.24" y2="195.65" xlink:href="#linear-gradient-2"/><linearGradient id="linear-gradient-8" x1="301.48" y1="195.26" x2="325.24" y2="195.26" xlink:href="#linear-gradient-2"/><linearGradient id="linear-gradient-9" x1="283.59" y1="189.61" x2="325.1" y2="189.61" xlink:href="#linear-gradient-2"/><linearGradient id="linear-gradient-10" x1="293.67" y1="190.77" x2="320.14" y2="190.77" xlink:href="#linear-gradient-2"/><linearGradient id="linear-gradient-11" x1="302.3" y1="189.06" x2="333.51" y2="189.06" xlink:href="#linear-gradient-2"/><linearGradient id="linear-gradient-12" x1="283.59" y1="195.28" x2="309.83" y2="195.28" xlink:href="#linear-gradient-2"/><linearGradient id="linear-gradient-13" x1="309.18" y1="181.68" x2="333.59" y2="181.68" xlink:href="#linear-gradient-2"/><linearGradient id="linear-gradient-14" x1="297.46" y1="184.68" x2="307.13" y2="184.68" xlink:href="#linear-gradient-2"/><linearGradient id="linear-gradient-15" x1="294.74" y1="171.71" x2="312.3" y2="171.71" xlink:href="#linear-gradient-2"/><linearGradient id="linear-gradient-16" x1="293.06" y1="153.49" x2="299.16" y2="153.49" xlink:href="#linear-gradient-2"/><linearGradient id="linear-gradient-17" x1="270.43" y1="165.25" x2="297.19" y2="165.25" xlink:href="#linear-gradient-2"/><linearGradient id="linear-gradient-18" x1="275.97" y1="133.13" x2="291.54" y2="133.13" xlink:href="#linear-gradient-2"/><linearGradient id="linear-gradient-19" x1="277.93" y1="138.2" x2="291.99" y2="138.2" xlink:href="#linear-gradient-2"/><linearGradient id="linear-gradient-20" x1="278.12" y1="148.23" x2="289.06" y2="148.23" xlink:href="#linear-gradient-2"/><linearGradient id="linear-gradient-21" x1="265.28" y1="159.99" x2="274.89" y2="159.99" xlink:href="#linear-gradient-2"/><linearGradient id="linear-gradient-22" x1="277.81" y1="130.26" x2="296.15" y2="130.26" xlink:href="#linear-gradient-2"/><linearGradient id="linear-gradient-23" x1="266.66" y1="179.32" x2="297.21" y2="179.32" xlink:href="#linear-gradient-2"/></defs><g class="cls-1"><g id="Layer_2" data-name="Layer 2"><g id="Layer_1-2" data-name="Layer 1"><rect class="cls-2" width="469.22" height="500" rx="31.48"/><path class="cls-3" d="M0,318.52v-287A31.47,31.47,0,0,1,31.48,0H437.74a31.48,31.48,0,0,1,31.48,31.48v287Z"/><text class="cls-4" transform="translate(138.38 391.56)">IT IS PRIVATE</text><text class="cls-5" transform="translate(54.01 424.43)">A tamper-proof experience that allows <tspan x="23.68" y="24">security to coexist with effciency.</tspan></text><path class="cls-6" d="M317.92,183.83l-15.15-8.75,55.84-32.24c2.64-1.52,2.64-4,0-5.52l-57-32.93a10.55,10.55,0,0,0-9.57,0l-55.84,32.24L221,127.88l55.85-32.24c11-6.34,28.86-6.34,39.85,0l57.05,32.94c11,6.34,11,16.66,0,23Z"/><path class="cls-6" d="M342.36,187.68c0-8.1-4.93-17.5-11-21L230.19,108.26c-2.72-1.57-5.21-1.68-7.13-.61h0l-120.8,70.2,116.82,88,119-69.08a5.31,5.31,0,0,0,1.05-.61h0C341.13,194.68,342.36,191.72,342.36,187.68Z"/><path class="cls-6" d="M219.08,265.87l119-69.08a5.31,5.31,0,0,0,1.05-.61h0c2-1.5,3.22-4.46,3.22-8.5a26.87,26.87,0,0,0-3-11.7L203.73,254.3Z"/><path class="cls-6" d="M211.47,265.56,110.29,207.14c-6.07-3.5-11-12.91-11-21h0c0-8.09,4.92-11.81,11-8.31l101.18,58.42c6.07,3.5,11,12.91,11,21h0C222.46,265.34,217.54,269.06,211.47,265.56Z"/><path class="cls-6" d="M212.68,235.68,111.51,177.27c-2.79-1.61-5.33-1.68-7.27-.52a7.67,7.67,0,0,1,6.05,1.07l101.18,58.41c6.07,3.51,11,12.92,11,21h0c0,4.38-1.44,7.46-3.72,8.83,3-.91,4.94-4.27,4.94-9.38h0C223.68,248.59,218.76,239.19,212.68,235.68Z"/><path class="cls-6" d="M196.31,245.86l-12.16-7a5.25,5.25,0,0,1-2.19-4.19h0c0-1.61,1-2.35,2.19-1.65l12.16,7a5.26,5.26,0,0,1,2.19,4.19h0C198.5,245.81,197.52,246.56,196.31,245.86Z"/><path class="cls-6" d="M210,162.8c3.67-2.17,3.64-5.62-.08-7.71a14.79,14.79,0,0,0-13.37.13c-3.67,2.17-3.63,5.63.08,7.72A14.76,14.76,0,0,0,210,162.8Z"/><path class="cls-6" d="M230.4,174.28c3.67-2.17,3.64-5.62-.08-7.72a14.77,14.77,0,0,0-13.36.14c-3.67,2.17-3.64,5.63.08,7.72A14.73,14.73,0,0,0,230.4,174.28Z"/><path class="cls-6" d="M250.78,185.76c3.67-2.17,3.63-5.62-.08-7.72a14.79,14.79,0,0,0-13.37.14c-3.67,2.17-3.64,5.63.08,7.72A14.76,14.76,0,0,0,250.78,185.76Z"/><path class="cls-7" d="M301.6,184.08c-8.1-4.68-21.21-4.71-29.27,0s-8,12.29.1,17,21.18,4.68,29.27,0S309.71,188.76,301.6,184.08Z"/><path class="cls-8" d="M302.06,235.54s-1.06.13-1.26.54a28.78,28.78,0,0,0-.28,4.38,27.08,27.08,0,0,0,5.39,4.08c2.61,1.34,4.86,1.92,5.87,1s.38-1.89-1.76-3.63-4.22-6.41-4.22-6.41S302.06,235.54,302.06,235.54Z"/><path class="cls-9" d="M307.31,224.84s-1.06-.14-1.35.21a28.2,28.2,0,0,0-1.39,4.16,27.33,27.33,0,0,0,4.18,5.32c2.18,1.95,4.21,3.09,5.41,2.49s.85-1.73-.78-4-2.45-7.27-2.45-7.27S307.31,224.84,307.31,224.84Z"/><path class="cls-10" d="M272.68,181.13c-.08,5,.56,12.83,3.11,14.58,3.9,2.68,19.91,15,19.91,15l4.36,25.3s2.72,2.69,6.94,0c0,0-2.84-28.45-3.45-31s-15.41-18.58-15.41-18.58Z"/><path class="cls-11" d="M286.09,178.53c-1.34,4.77-2.27,10.42-.1,12.64,2.34,2.4,26.63,9.65,26.63,9.65L305.43,225s1.94,3.29,6.71,1.77c0,0,12.95-27.64,13-30.21s-24.45-14.43-24.45-14.43Z"/><g class="cls-1"><path class="cls-12" d="M325.12,188.87l-23.76,13.81a.31.31,0,0,0,.12-.26l23.76-13.81A.28.28,0,0,1,325.12,188.87Z"/><polygon class="cls-13" points="301.48 201.91 325.24 188.1 325.24 188.61 301.48 202.43 301.48 201.91"/><polygon class="cls-14" points="283.59 191.39 307.36 177.58 325.1 187.82 301.33 201.63 283.59 191.39"/><path class="cls-15" d="M319.86,187.15c.36.21.38.55,0,.77L302,198.29a1.46,1.46,0,0,1-1.32,0l-6.76-3.9c-.36-.2-.34-.54,0-.75l17.86-10.38a1.45,1.45,0,0,1,1.3,0Z"/><path class="cls-16" d="M302.37,202.43l7.37-13,23.77-13.81-7.37,13a.3.3,0,0,1-.08.08L302.3,202.51A.19.19,0,0,0,302.37,202.43Z"/><path class="cls-17" d="M309.18,187.75l.2.21a1.43,1.43,0,0,1,.36,1.45l-7.37,13c-.28.6-1.08.35-1.29.22L284.4,193a1.76,1.76,0,0,1-.81-1.4v-.23l17.74,10.24Z"/><path class="cls-18" d="M309.18,187.75,333,173.94l.2.21a1.45,1.45,0,0,1,.36,1.45l-23.77,13.81a1.43,1.43,0,0,0-.36-1.45Z"/></g><path class="cls-19" d="M307,183.65c.16.1.17.24,0,.34l-5.9,3.43a.66.66,0,0,1-.58,0l-2.95-1.71c-.16-.09-.15-.24,0-.33l5.9-3.43a.64.64,0,0,1,.57,0Z"/><path class="cls-20" d="M297.21,157.67s2.61,6.63,3.15,8.44,6.69,12.66,7.06,13.21,4.88,4.16,4.88,4.7a1.82,1.82,0,0,1-1.81,1.74c-1.45.16-5.34-2.66-5.34-2.66s-1,2.5-1.4-.5.77-2.54-.23-4.07c0,0-6.51-4.37-8-10a21,21,0,0,1-.18-10.31Z"/><path class="cls-21" d="M299.16,158.69c-1.2-5.57-3.71-12.86-6.1-13.15l2.2,15.9A9.42,9.42,0,0,0,299.16,158.69Z"/><path class="cls-22" d="M278.12,147.31a30.21,30.21,0,0,0-7.69,4.46l2.25,31.69s4.7,3.44,14.31.92c7.83-2,9.89-5.34,9.89-5.34s.71-15.53,0-23.09-3.8-10.41-3.8-10.41a22.88,22.88,0,0,0-5.48-.3Z"/><path class="cls-23" d="M288.75,125.77a19,19,0,0,0-10,.61c-4.94,1.85-2.05,8.88-.6,12.2s2.46,2.11,2.46,2.11l10.76-4.34s.32-.34.11-4.83S288.75,125.77,288.75,125.77Z"/><path class="cls-24" d="M279.7,145.55l-.22-7.28a1.69,1.69,0,0,1-1.51-2.14c.31-2,2.19-.69,2.52-.1,0,0,.42-6.9,4.08-7.57s7.2.12,7.3,1.91.21,8,0,10.32-2,3.26-5.37,3.17l.23,3.74s-1.68,1.23-6.36.09Z"/><path class="cls-25" d="M286.55,144.63a2.52,2.52,0,0,1,.89.13,4.45,4.45,0,0,1,1.62,3,10.58,10.58,0,0,1-.57,3.17l-3-2.74-1.91,3.69a7.93,7.93,0,0,1-2.82-1.47,10.51,10.51,0,0,1-2.61-3.05c.52-1.33.88-2.13.88-2.13.12-.3.7-.44.7-.44s3.23,2.93,5.76,3.07C285.46,147.81,286.36,147.39,286.55,144.63Z"/><path class="cls-26" d="M272.27,168.2c1-2.46,3.11-8.41,2.52-11.54a6.28,6.28,0,0,0-4.36-4.89c-1.51,1.73-3.7,7.42-5.15,12.18C267.63,165.33,269.93,166.8,272.27,168.2Z"/><path class="cls-27" d="M295.84,127.39a5.65,5.65,0,0,0-1-1.94c-2.45-3-6-1.24-9.17-1.79a16.68,16.68,0,0,0-2.22-.53,5.14,5.14,0,0,0-4.87,2.81c-.14.32-.29.67-.41,1a5.47,5.47,0,0,0-.34,1.71,32.51,32.51,0,0,0,.65,3.52,14.52,14.52,0,0,0,2.1,5.18c.29-.09.57-.16.85-.23a4.49,4.49,0,0,1,.5-2.3c.54-1.15,1-2.4.37-3.6,1.88,1,2.22,1.09,4.42.68,1.37-.26,2.71.42,4,1s2.84.91,4,.14a3.76,3.76,0,0,0,1.4-2.78A7,7,0,0,0,295.84,127.39Z"/><path class="cls-28" d="M267.45,165.25s-1.65,8.4-.2,10.09,15.21,9.88,16.34,11.06,4.94,4.43,7.49,4.37,3.86,2.36,5.14,2.6,1.08-3.05.7-4.31c-.45-1.51-3.53-1.78-3.53-1.78s3.32-1.63-1.88-.95l-3-.5-15.2-14.56.3-2.5Z"/></g></g></g></svg>