<svg xmlns="http://www.w3.org/2000/svg" xmlns:xlink="http://www.w3.org/1999/xlink" viewBox="0 0 469.22 500"><defs><style>.cls-1{fill:#66efc5;}.cls-2{fill-rule:evenodd;fill:url(#linear-gradient);}.cls-3{font-size:30px;font-family:Avenir-Black, Avenir;}.cls-3,.cls-4{fill:#333;font-weight:800;}.cls-4{font-size:20px;font-family:Avenir-Heavy, Avenir;}.cls-5{fill:#f2f2f2;}.cls-10,.cls-11,.cls-12,.cls-13,.cls-14,.cls-15,.cls-5,.cls-6,.cls-7,.cls-8,.cls-9{stroke:#662d91;stroke-miterlimit:10;}.cls-6{fill:#c69c6d;}.cls-7{fill:#957552;}.cls-8{fill:#baa188;}.cls-9{fill:#b89675;}.cls-10{fill:#7d5d3e;}.cls-11{fill:#79508f;}.cls-12{fill:#cab097;}.cls-13{fill:#a67c52;}.cls-14{fill:#ddd0cc;}.cls-15{fill:#e8d7c5;}</style><linearGradient id="linear-gradient" x1="234.61" y1="318.52" x2="234.61" gradientUnits="userSpaceOnUse"><stop offset="0" stop-color="#7df8ff"/><stop offset="0.14" stop-color="#95def9"/><stop offset="0.29" stop-color="#a9c9f5"/><stop offset="0.46" stop-color="#b7baf2"/><stop offset="0.66" stop-color="#bfb1f0"/><stop offset="0.96" stop-color="#c2aeef"/></linearGradient></defs><g id="Layer_2" data-name="Layer 2"><g id="Layer_1-2" data-name="Layer 1"><rect class="cls-1" width="469.22" height="500" rx="31.48"/><path class="cls-2" d="M0,318.52v-287A31.47,31.47,0,0,1,31.48,0H437.74a31.48,31.48,0,0,1,31.48,31.48v287Z"/><text class="cls-3" transform="translate(147.01 391.56)">IT IS EQUAL</text><text class="cls-4" transform="translate(56.24 424.43)">Scalable everywhere and to everyone.</text><path class="cls-5" d="M221.56,162.56a2.44,2.44,0,0,0-.58-4.65,6.2,6.2,0,0,0-2-9.11,2.84,2.84,0,0,0-2.43-4.33,3.29,3.29,0,0,0-.54.05,6.36,6.36,0,0,0-7.69-6.05,3.67,3.67,0,0,0-5.92-1.2,2.83,2.83,0,0,0-1.58-.47,3,3,0,0,0-.42,0,2.71,2.71,0,0,0-5.39,0,5.28,5.28,0,0,0-6.55,1.36,3.7,3.7,0,0,0-.83-.09,4.38,4.38,0,0,0-4.25,3.36,1.66,1.66,0,0,0-.33,0,2.56,2.56,0,0,0-2.55,2.56,2.67,2.67,0,0,0,.12.75,4.33,4.33,0,0,0-1.69,3.33,5.74,5.74,0,0,0-3.56,9.37,2.43,2.43,0,0,0,0,4.34A6.2,6.2,0,0,0,176.3,172a2.84,2.84,0,0,0,2.24,4.6,2.91,2.91,0,0,0,.72-.1,6.33,6.33,0,0,0,8.61,3.69,3.66,3.66,0,0,0,6.86.1c1.37-.21,2.74-.48,4.09-.75a5.34,5.34,0,0,0,8.31,1.81,4.3,4.3,0,0,0,1.93.47,4.37,4.37,0,0,0,4.17-3.09,2.44,2.44,0,0,0,.77.14,2.56,2.56,0,0,0,2.56-2.56,2.58,2.58,0,0,0-.36-1.3,4.35,4.35,0,0,0,2-2.74,5.77,5.77,0,0,0,3.32-9.74Z"/><path class="cls-5" d="M229.85,206.18c-1.95-4.53-20.31-15.6-31.81-15.6s-29.85,11.07-31.81,15.6S167.62,318,167.62,318h60.84S231.81,210.71,229.85,206.18Z"/><path class="cls-6" d="M185.76,181h24.56a0,0,0,0,1,0,0v14.22a8.93,8.93,0,0,1-8.93,8.93H194.7a8.93,8.93,0,0,1-8.93-8.93V181A0,0,0,0,1,185.76,181Z"/><path class="cls-6" d="M217.68,166.53A19.64,19.64,0,1,0,192,185.63a6.18,6.18,0,0,0,12.11,0A20.06,20.06,0,0,0,217.68,166.53Z"/><path class="cls-6" d="M201,174.94a3.94,3.94,0,0,0-2.9,2.29,3.9,3.9,0,0,0-2.89-2.29,3,3,0,0,0-3.53,1.72,16.69,16.69,0,0,0,6.22,1.29h.4a16.69,16.69,0,0,0,6.22-1.29A2.94,2.94,0,0,0,201,174.94Z"/><path class="cls-5" d="M198.14,179.8a6.21,6.21,0,0,1-4.44-1.55.25.25,0,0,1,0-.35.24.24,0,0,1,.35,0,6.67,6.67,0,0,0,8.15,0,.23.23,0,0,1,.34,0,.24.24,0,0,1,0,.35A6.21,6.21,0,0,1,198.14,179.8Z"/><path class="cls-6" d="M202.22,169.22A2.46,2.46,0,0,0,200,167h-3.62a2.47,2.47,0,0,0-2.27,2.25,1.85,1.85,0,0,0-1.54,1.93v.43a.81.81,0,0,0,.74.87H203a.81.81,0,0,0,.74-.87v-.43A1.85,1.85,0,0,0,202.22,169.22Z"/><path class="cls-5" d="M204.43,164.26a1.28,1.28,0,1,0,1.28-1.28A1.28,1.28,0,0,0,204.43,164.26Z"/><path class="cls-5" d="M209.54,164.26a1.19,1.19,0,0,0-.65-.84,3.56,3.56,0,0,0-1-.43,9,9,0,0,0-4.37,0,3.56,3.56,0,0,0-1,.43,1.19,1.19,0,0,0-.65.84c0-.85.84-1.37,1.52-1.64a6.74,6.74,0,0,1,4.63,0C208.7,162.89,209.58,163.41,209.54,164.26Z"/><path class="cls-5" d="M191.86,164.26a1.28,1.28,0,1,1-1.28-1.28A1.28,1.28,0,0,1,191.86,164.26Z"/><path class="cls-5" d="M186.74,164.26c0-.85.84-1.37,1.53-1.64a6.71,6.71,0,0,1,4.62,0c.69.27,1.56.79,1.53,1.64a1.21,1.21,0,0,0-.65-.84,3.62,3.62,0,0,0-1-.43,8,8,0,0,0-2.18-.27,8.07,8.07,0,0,0-2.19.27,3.56,3.56,0,0,0-1,.43A1.19,1.19,0,0,0,186.74,164.26Z"/><path class="cls-5" d="M214.82,150.54a13,13,0,0,0-4.5-2.79v11.07a7.55,7.55,0,0,0,4.21,3.39l-1.39,9.29a2.06,2.06,0,0,0,2,2.36h1.1c1.45-1.26,2.46-7.71,3.13-14.35A17.46,17.46,0,0,0,214.82,150.54Z"/><path class="cls-5" d="M179.75,173.86h1.1a2.06,2.06,0,0,0,2-2.36l-1.39-9.29s5.5-1.45,5.24-8.08c0,0,5.33,7,17.7,1.29,0,0,3.85,4.74,7.44,3.29V143.49H194.75a17.81,17.81,0,0,0-17.67,20.08C177.73,168.6,178.6,172.86,179.75,173.86Z"/><rect class="cls-5" x="260" y="163.19" width="40.16" height="51.67"/><path class="cls-5" d="M306.26,193.7,286.13,184l-6.05-2-5.63,1.72L254,193.69a11.52,11.52,0,0,0-3.6,8.1l6,116.22h47.4l6-116.25A11.51,11.51,0,0,0,306.26,193.7Z"/><path class="cls-5" d="M268.55,160.66c.51,3.24-1,6.17-3.29,6.54s-4.63-2-5.15-5.2.82-4.64,3.15-5S268,157.42,268.55,160.66Z"/><path class="cls-5" d="M291.61,160.66c-.51,3.24,1,6.17,3.29,6.54s4.64-2,5.15-5.2-.82-4.64-3.15-5S292.13,157.42,291.61,160.66Z"/><path class="cls-7" d="M280.08,199.79c-20.73,0-8.35-13.63-8.35-13.63V175.65h16.7v10.51S300.81,199.79,280.08,199.79Z"/><ellipse class="cls-7" cx="280.08" cy="162.07" rx="14.86" ry="20.18"/><path class="cls-7" d="M281.68,165.1v-4.59a1.6,1.6,0,0,0-1.6-1.6h0a1.6,1.6,0,0,0-1.6,1.6v4.59a1.14,1.14,0,0,0-1,1.13,1.16,1.16,0,0,0,1.16,1.16h.16a1.56,1.56,0,0,0,1.25.66,1.58,1.58,0,0,0,1.26-.66h.15a1.16,1.16,0,0,0,1.17-1.16A1.15,1.15,0,0,0,281.68,165.1Z"/><path class="cls-5" d="M282.4,170.71a3.2,3.2,0,0,0-2.32,1.22,3.19,3.19,0,0,0-2.31-1.22c-1.26-.16-2.43.17-2.82.92a20,20,0,0,0,5,.69h.32a20,20,0,0,0,5-.69C284.83,170.88,283.65,170.55,282.4,170.71Z"/><path class="cls-5" d="M284.71,171.55c0,.84-2.07,2.3-4.63,2.3s-4.63-1.46-4.63-2.3a28.4,28.4,0,0,0,9.26,0Z"/><line class="cls-5" x1="289.91" y1="158.65" x2="290.95" y2="157.61"/><line class="cls-5" x1="290.73" y1="159.16" x2="291.76" y2="158.13"/><line class="cls-5" x1="270.25" y1="158.65" x2="269.22" y2="157.61"/><line class="cls-5" x1="269.44" y1="159.16" x2="268.4" y2="158.13"/><path class="cls-5" d="M280.08,134.26c-33,0-24.64,73.58-24.64,73.58h10.73V172.32c0-28.71,11.64-26.6,13.91-23.88,2.27-2.72,13.92-4.83,13.92,23.88v35.52h10.73S313.1,134.26,280.08,134.26Z"/><path class="cls-5" d="M288.27,158.61a14.75,14.75,0,0,0-1.62-.14,1.23,1.23,0,0,0-.37.89,1.26,1.26,0,0,0,2.52,0,1.29,1.29,0,0,0-.21-.71Z"/><path class="cls-5" d="M288.27,158.61c-.57-.08-1.14-.12-1.72-.15-.21,0-.42.06-.63.1a1.78,1.78,0,0,0-.19.8,1.81,1.81,0,1,0,3.62,0,1.68,1.68,0,0,0-.12-.63C288.92,158.71,288.6,158.65,288.27,158.61Zm-.73,1.46a.71.71,0,1,1,.71-.71A.71.71,0,0,1,287.54,160.07Z"/><path class="cls-5" d="M291.32,160.37a.25.25,0,0,1-.25-.25c0-.72-1.45-1.52-3.53-1.52s-3.53.8-3.53,1.52a.26.26,0,0,1-.51,0c0-1.14,1.77-2,4-2s4,.89,4,2A.25.25,0,0,1,291.32,160.37Z"/><path class="cls-5" d="M271.68,158.52a1.28,1.28,0,0,0-.32.84,1.27,1.27,0,0,0,2.53,0,1.29,1.29,0,0,0-.35-.87Z"/><path class="cls-5" d="M271,158.53a1.8,1.8,0,0,0,1.6,2.64,1.82,1.82,0,0,0,1.82-1.81,1.87,1.87,0,0,0-.24-.88Zm1.6,1.54a.71.71,0,0,1,0-1.42.71.71,0,1,1,0,1.42Z"/><path class="cls-5" d="M276.41,160.37a.25.25,0,0,1-.25-.25c0-.72-1.45-1.52-3.54-1.52s-3.53.8-3.53,1.52a.25.25,0,0,1-.25.25.26.26,0,0,1-.26-.25c0-1.14,1.78-2,4-2s4,.89,4,2A.25.25,0,0,1,276.41,160.37Z"/><rect class="cls-5" x="367.98" y="159.03" width="38.91" height="72.03"/><path class="cls-5" d="M413.61,200.26l-20.13-9.68-6-2-5.64,1.72-20.5,9.94a11.54,11.54,0,0,0-3.6,8.11l6,109.66h47.4l6-109.69A11.51,11.51,0,0,0,413.61,200.26Z"/><path class="cls-5" d="M370,158.88s2.6-3.34,5.43-11.12c0,0,10.26,5.49,19.76,2.44s9.19,28.24,3.63,57.78c0,0,.46,11.34,10.75,11.34s18.6-85.67-22.83-85.67C362.74,133.65,370,158.88,370,158.88Z"/><path class="cls-8" d="M387.44,172.19h0a7,7,0,0,0-6.95,6.94v15.11a7,7,0,0,0,6.95,6.94h0a6.94,6.94,0,0,0,6.94-6.94V179.13A6.94,6.94,0,0,0,387.44,172.19Z"/><path class="cls-5" d="M374.32,160.53c.59,3.68-1.09,7-3.74,7.43s-5.27-2.23-5.85-5.91.93-5.28,3.58-5.7S373.74,156.84,374.32,160.53Z"/><ellipse class="cls-8" cx="387.44" cy="162.13" rx="16.9" ry="22.95"/><path class="cls-5" d="M387.44,175.77a7.33,7.33,0,0,1-5.24-1.83.29.29,0,1,1,.43-.39,7.86,7.86,0,0,0,9.61,0,.29.29,0,0,1,.43.39A7.32,7.32,0,0,1,387.44,175.77Z"/><path class="cls-5" d="M393.69,162.1a1.41,1.41,0,1,0,1.4-1.41A1.4,1.4,0,0,0,393.69,162.1Z"/><path class="cls-5" d="M399.3,162.38a.28.28,0,0,1-.28-.28c0-.8-1.61-1.69-3.93-1.69s-3.92.89-3.92,1.69a.29.29,0,0,1-.57,0c0-1.27,2-2.26,4.49-2.26s4.5,1,4.5,2.26A.29.29,0,0,1,399.3,162.38Z"/><path class="cls-5" d="M398.58,161.28a.27.27,0,0,1-.2-.08.28.28,0,0,1,0-.4l1-1a.29.29,0,1,1,.41.41l-1,1A.24.24,0,0,1,398.58,161.28Z"/><path class="cls-5" d="M397.47,160.58a.27.27,0,0,1-.2-.08.28.28,0,0,1,0-.4l1-1a.28.28,0,0,1,.4,0,.3.3,0,0,1,0,.41l-1,1A.28.28,0,0,1,397.47,160.58Z"/><path class="cls-5" d="M381.51,162.1a1.41,1.41,0,1,1-1.4-1.41A1.4,1.4,0,0,1,381.51,162.1Z"/><path class="cls-5" d="M384.31,162.38a.29.29,0,0,1-.28-.28c0-.8-1.61-1.69-3.92-1.69s-3.93.89-3.93,1.69a.28.28,0,1,1-.56,0c0-1.27,2-2.26,4.49-2.26s4.49,1,4.49,2.26A.29.29,0,0,1,384.31,162.38Z"/><path class="cls-5" d="M376.62,161.28a.24.24,0,0,1-.2-.08l-1-1a.3.3,0,0,1,0-.41.28.28,0,0,1,.4,0l1,1a.28.28,0,0,1,0,.4A.27.27,0,0,1,376.62,161.28Z"/><path class="cls-5" d="M377.73,160.58a.28.28,0,0,1-.21-.08l-1-1a.3.3,0,0,1,0-.41.28.28,0,0,1,.4,0l1,1a.28.28,0,0,1,0,.4A.27.27,0,0,1,377.73,160.58Z"/><path class="cls-8" d="M389.12,168.06c0,1.51-.76,1.72-1.68,1.72s-1.68-.21-1.68-1.72a5.72,5.72,0,0,1,.89-2.53.94.94,0,0,1,1.58,0A5.84,5.84,0,0,1,389.12,168.06Z"/><path class="cls-5" d="M404.17,158.88s-2.6-3.34-5.43-11.12c0,0-10.26,5.49-19.75,2.44s-9.19,28.24-3.64,57.78c0,0-.46,11.34-10.75,11.34s-18.6-85.67,22.84-85.67C411.48,133.65,404.17,158.88,404.17,158.88Z"/><path class="cls-5" d="M142.16,208.15c-2.11-4.87-21.84-16.77-34.2-16.77s-32.09,11.9-34.2,16.77,1.5,67.34,1.5,67.34L108,318h32.7S144.26,213,142.16,208.15Z"/><path class="cls-5" d="M124.5,165.75a1.73,1.73,0,0,0-.41-3.3,4.4,4.4,0,0,0-1.42-6.47,2,2,0,0,0,.3-1,2,2,0,0,0-2-2,1.58,1.58,0,0,0-.38,0,4.54,4.54,0,0,0-4.53-4.4,4.73,4.73,0,0,0-.93.1,2.61,2.61,0,0,0-4.21-.85,2,2,0,0,0-1.12-.34l-.3,0a1.92,1.92,0,0,0-3.82,0,3.71,3.71,0,0,0-1.72-.43,3.81,3.81,0,0,0-2.93,1.39,2.88,2.88,0,0,0-.59-.06,3.12,3.12,0,0,0-3,2.38l-.23,0a1.82,1.82,0,0,0-1.82,1.81,1.84,1.84,0,0,0,.09.53,3.07,3.07,0,0,0-1.2,2.37,4.07,4.07,0,0,0-2.52,6.65,1.72,1.72,0,0,0,0,3.08,4.4,4.4,0,0,0,.66,7.28,2,2,0,0,0-.44,1.24,2,2,0,0,0,2,2,1.81,1.81,0,0,0,.51-.08,4.51,4.51,0,0,0,4.26,3,4.58,4.58,0,0,0,1.85-.4,2.6,2.6,0,0,0,4.87.07c1-.14,1.94-.33,2.91-.53a3.78,3.78,0,0,0,5.89,1.28,3.06,3.06,0,0,0,1.38.34,3.1,3.1,0,0,0,3-2.19,2,2,0,0,0,.55.09,1.81,1.81,0,0,0,1.82-1.81,1.79,1.79,0,0,0-.26-.92,3.12,3.12,0,0,0,1.45-2,4.09,4.09,0,0,0,2.36-6.92Z"/><path class="cls-5" d="M125.94,153.59c0,9.94-8,13.87-18,13.87s-18-3.93-18-13.87,8-19.45,18-19.45S125.94,143.66,125.94,153.59Z"/><path class="cls-9" d="M95.94,173.18c.53,3.37-1,6.42-3.43,6.8s-4.83-2-5.36-5.41.85-4.83,3.28-5.22S95.4,169.8,95.94,173.18Z"/><path class="cls-9" d="M120,173.18c-.54,3.37,1,6.42,3.42,6.8s4.83-2,5.37-5.41-.86-4.83-3.29-5.22S120.49,169.8,120,173.18Z"/><path class="cls-9" d="M108,201.16h0c-6,0-11.4-2.3-11.4-8.28V184h22.8v8.86C119.35,198.86,113.92,201.16,108,201.16Z"/><path class="cls-9" d="M108,148.12c-8.66,0-15.2,7-15.2,15.67v15.05a6.86,6.86,0,0,0,6.94,7.08h2.38c0,2.24,2.63,4.05,5.88,4.05s5.87-1.81,5.87-4.05h2.74c4,0,6.59-3.09,6.59-7.08V163.79C123.15,155.14,116.6,148.12,108,148.12Z"/><path class="cls-5" d="M91.17,156.19a3.86,3.86,0,0,0,1.57,1,4,4,0,0,0,.16.57,3.1,3.1,0,0,0,3.31,1.95,2,2,0,0,0,.07.23,1.82,1.82,0,0,0,2.35,1,1.92,1.92,0,0,0,.46-.27,3.08,3.08,0,0,0,2.64.26,4.09,4.09,0,0,0,5,1.78,4,4,0,0,0,2.08-1.84,1.72,1.72,0,0,0,2.88-1.1,4.41,4.41,0,0,0,6.55-3.25,2,2,0,0,0,1.31-.05,1.84,1.84,0,0,0,.54-.32Z"/><path class="cls-5" d="M114,168.75a1.23,1.23,0,1,0,1.23-1.23A1.23,1.23,0,0,0,114,168.75Z"/><path class="cls-5" d="M118.89,168.75a1.12,1.12,0,0,0-.62-.81,3.28,3.28,0,0,0-1-.41,7.08,7.08,0,0,0-2.1-.26,7.42,7.42,0,0,0-2.1.26,3.28,3.28,0,0,0-1,.41,1.14,1.14,0,0,0-.63.81c0-.82.81-1.32,1.47-1.58a6.36,6.36,0,0,1,4.44,0C118.08,167.43,118.93,167.93,118.89,168.75Z"/><path class="cls-5" d="M101.92,168.75a1.23,1.23,0,1,1-1.23-1.23A1.23,1.23,0,0,1,101.92,168.75Z"/><path class="cls-5" d="M97,168.75c0-.82.81-1.32,1.47-1.58a6.36,6.36,0,0,1,4.44,0c.65.26,1.5.76,1.46,1.58a1.12,1.12,0,0,0-.62-.81,3.33,3.33,0,0,0-1-.41,7.31,7.31,0,0,0-2.09-.26,7.08,7.08,0,0,0-2.1.26,3.28,3.28,0,0,0-1,.41A1.14,1.14,0,0,0,97,168.75Z"/><path class="cls-5" d="M121.2,161.19s2.14,17.21-3.46,17.21-3.13-4.48-9.87-4.48-4.26,4.48-9.86,4.48-3.46-15.83-3.46-15.83l-2.37.24v15.58c0,6.51,4.79,8.66,7.28,8.66s3.39,2.82,8.26,2.91H108c4.87-.09,5.81-2.91,8.26-2.91s7.28-2.15,7.28-8.66v-17Z"/><path class="cls-5" d="M101.56,151.52s12.84,10,23.48,11.39c0,0,1.56-8.1.63-12.53Z"/><path class="cls-5" d="M125.67,150.38s-10.94,10.88-34.8,12.53a26.4,26.4,0,0,1-.23-14.31s9-8.47,17.32-8.47a79,79,0,0,1,13.56,1A14,14,0,0,1,125.67,150.38Z"/><path class="cls-9" d="M110.08,173.38V167a2.2,2.2,0,0,0-2.21-2.2h0a2.2,2.2,0,0,0-2.2,2.2v6.34a1.59,1.59,0,0,0-1.35,1.56,1.61,1.61,0,0,0,1.61,1.61h.21a2.17,2.17,0,0,0,1.73.9,2.2,2.2,0,0,0,1.74-.9h.21a1.61,1.61,0,0,0,1.61-1.61A1.59,1.59,0,0,0,110.08,173.38Z"/><path class="cls-5" d="M119.31,193.69s-2,33.24-46,35.67c0,0-1,33.69,2,46.13h35s26.16-25.8,29.22-70.55C139.44,204.94,131.41,193.82,119.31,193.69Z"/><path class="cls-5" d="M367,200.52a3.73,3.73,0,0,0-.89-7.12,9.51,9.51,0,0,0-3.05-14,4.33,4.33,0,0,0-4.54-6.55,9.78,9.78,0,0,0-9.76-9.48,10.23,10.23,0,0,0-2,.21,5.62,5.62,0,0,0-9.07-1.83,4.39,4.39,0,0,0-2.42-.73,4.62,4.62,0,0,0-.65.06,4.15,4.15,0,0,0-8.25,0,8.08,8.08,0,0,0-10,2.07,6.77,6.77,0,0,0-1.28-.12,6.69,6.69,0,0,0-6.5,5.13,4.4,4.4,0,0,0-.51-.05,3.91,3.91,0,0,0-3.91,3.92,3.59,3.59,0,0,0,.19,1.14,6.59,6.59,0,0,0-2.59,5.1,8.85,8.85,0,0,0-7.51,8.73,8.76,8.76,0,0,0,2.06,5.62,3.72,3.72,0,0,0,0,6.65A9.49,9.49,0,0,0,297.7,215a4.27,4.27,0,0,0-.95,2.68,4.37,4.37,0,0,0,4.37,4.36,4,4,0,0,0,1.1-.16,9.71,9.71,0,0,0,13.19,5.65,5.6,5.6,0,0,0,10.5.16c2.11-.32,4.19-.73,6.27-1.15a8.17,8.17,0,0,0,12.72,2.77,6.62,6.62,0,0,0,9.34-4,3.89,3.89,0,0,0,4.55-5.7,6.64,6.64,0,0,0,3.12-4.21A8.82,8.82,0,0,0,367,200.52Z"/><path class="cls-5" d="M360.68,231.55,338,220l-6.82-1.94-6.36,1.67-23.13,11.77c-2.64,2.28-4.06,5-4.06,7.85L304.4,318h53.48l6.81-78.65C364.69,236.56,363.28,233.83,360.68,231.55Z"/><path class="cls-10" d="M318.89,193.15c.55,3.44-1,6.55-3.49,6.94s-4.93-2.08-5.47-5.52.87-4.93,3.35-5.32S318.35,189.71,318.89,193.15Z"/><path class="cls-10" d="M343.39,193.15c-.55,3.44,1,6.55,3.49,6.94s4.92-2.08,5.47-5.52-.87-4.93-3.35-5.32S343.93,189.71,343.39,193.15Z"/><path class="cls-10" d="M331.14,237.53c-22,0-8.87-14.47-8.87-14.47V202.82H340v20.24S353.16,237.53,331.14,237.53Z"/><path class="cls-10" d="M346.93,194.65c0,11.83-10.85,21.43-15.79,21.43s-15.79-9.6-15.79-21.43,7.07-21.44,15.79-21.44S346.93,182.81,346.93,194.65Z"/><path class="cls-10" d="M334.09,203.39a4.2,4.2,0,0,0-2.95,2.77,4.2,4.2,0,0,0-3-2.77,2.9,2.9,0,0,0-3.59,2.07,15.08,15.08,0,0,0,6.34,1.57h.42a15.08,15.08,0,0,0,6.34-1.57A2.91,2.91,0,0,0,334.09,203.39Z"/><path class="cls-10" d="M337.05,205.52c0,1.08-2.65,3.81-5.91,3.81s-5.91-2.73-5.91-3.81a13.43,13.43,0,0,0,11.82,0Z"/><path class="cls-10" d="M333.89,198.82c-.14-1-.75-1.7-1.53-1.7h-2.44c-.78,0-1.39.74-1.53,1.7a1.38,1.38,0,0,0-1,1.47v.33a.59.59,0,0,0,.5.65h6.58a.59.59,0,0,0,.5-.65v-.33A1.38,1.38,0,0,0,333.89,198.82Z"/><path class="cls-11" d="M337.23,195.22a1.41,1.41,0,1,0,1.4-1.41A1.4,1.4,0,0,0,337.23,195.22Z"/><path class="cls-5" d="M342.84,195.5a.27.27,0,0,1-.28-.28c0-.8-1.61-1.69-3.93-1.69s-3.92.89-3.92,1.69a.29.29,0,0,1-.57,0c0-1.26,2-2.25,4.49-2.25s4.5,1,4.5,2.25A.28.28,0,0,1,342.84,195.5Z"/><path class="cls-5" d="M342.12,194.4a.27.27,0,0,1-.2-.08.28.28,0,0,1,0-.4l1-1a.29.29,0,1,1,.41.41l-1,1A.24.24,0,0,1,342.12,194.4Z"/><path class="cls-5" d="M341,193.7a.27.27,0,0,1-.2-.08.28.28,0,0,1,0-.4l1-1a.28.28,0,0,1,.4,0,.3.3,0,0,1,0,.41l-1,1A.28.28,0,0,1,341,193.7Z"/><path class="cls-11" d="M325.05,195.22a1.41,1.41,0,1,1-1.4-1.41A1.4,1.4,0,0,1,325.05,195.22Z"/><path class="cls-5" d="M327.85,195.5a.28.28,0,0,1-.28-.28c0-.8-1.61-1.69-3.92-1.69s-3.93.89-3.93,1.69a.28.28,0,1,1-.56,0c0-1.26,2-2.25,4.49-2.25s4.49,1,4.49,2.25A.28.28,0,0,1,327.85,195.5Z"/><path class="cls-5" d="M320.16,194.4a.24.24,0,0,1-.2-.08l-1-1a.3.3,0,0,1,0-.41.28.28,0,0,1,.4,0l1,1a.28.28,0,0,1,0,.4A.27.27,0,0,1,320.16,194.4Z"/><path class="cls-5" d="M321.27,193.7a.28.28,0,0,1-.21-.08l-1-1a.3.3,0,0,1,0-.41.28.28,0,0,1,.4,0l1,1a.28.28,0,0,1,0,.4A.27.27,0,0,1,321.27,193.7Z"/><path class="cls-5" d="M345.34,176.27a7.33,7.33,0,0,0-5.61-4.22c-1.09-2.91-5-5.07-9.68-5.07-5.38,0-9.73,2.84-10,6.39A8.23,8.23,0,1,0,328,185.28,4,4,0,0,0,333,183.9a7.27,7.27,0,0,0,5.63,2.69,7.18,7.18,0,0,0,2.28-.4,5.77,5.77,0,1,0,4.39-9.92Z"/><path class="cls-5" d="M152.9,175h0a17.6,17.6,0,0,0-17.6,17.59V250h35.19V192.58A17.6,17.6,0,0,0,152.9,175Z"/><path class="cls-5" d="M185.33,248.5l-17.47-20.14-15-3.38-14.46,2.91-17.93,20.59a23.47,23.47,0,0,0-4.45,13.74V318h73.68V262.17A23.48,23.48,0,0,0,185.33,248.5Z"/><path class="cls-5" d="M170.92,231.89l-29.53-3.62-20.29,23.3a26.51,26.51,0,0,0-5,15.55v24.59C162,291.71,170.69,232,170.92,231.89Z"/><path class="cls-12" d="M167.3,201.85c0,10.8-9.9,19.56-14.4,19.56s-14.4-8.76-14.4-19.56,6.44-14.06,14.4-14.06S167.3,191.06,167.3,201.85Z"/><path class="cls-5" d="M170.92,231.89l-3.06-3.53-15-3.38-14.46,2.91-17.93,20.59a23.47,23.47,0,0,0-4.45,13.74V284C156.68,284,170.72,232,170.92,231.89Z"/><path class="cls-12" d="M155.43,206.43c0,2.78-1.13,3.18-2.53,3.18s-2.53-.4-2.53-3.18a12.21,12.21,0,0,1,1.34-4.65,1.29,1.29,0,0,1,2.38,0A12.21,12.21,0,0,1,155.43,206.43Z"/><path class="cls-5" d="M155.14,211.69a3.11,3.11,0,0,0-2.24,1.18,3.11,3.11,0,0,0-2.25-1.18c-1.21-.15-2.35.17-2.72.89a19.11,19.11,0,0,0,4.81.67h.31a19.26,19.26,0,0,0,4.82-.67C157.5,211.86,156.36,211.54,155.14,211.69Z"/><path class="cls-5" d="M149.87,194.17l-1.36-.21c-.39-.08-.85-.1-1.32-.17a9.11,9.11,0,0,0-1.51-.14,7.07,7.07,0,0,0-2.8.71,6,6,0,0,0-.86.48l-.33.2a.06.06,0,0,1-.07,0,0,0,0,0,1,0-.07l.28-.26a6.52,6.52,0,0,1,.79-.65,6.73,6.73,0,0,1,2.9-1.22,6.33,6.33,0,0,1,1.73-.11,4.91,4.91,0,0,1,1.43.46,3.46,3.46,0,0,1,1.17.9s0,.06,0,.07Z"/><path class="cls-5" d="M155.87,194.08a3.48,3.48,0,0,1,1.16-.9,4.88,4.88,0,0,1,1.44-.46,6.38,6.38,0,0,1,1.73.11,6.78,6.78,0,0,1,2.9,1.22,7.13,7.13,0,0,1,.78.65l.29.26a0,0,0,0,1,0,.07.06.06,0,0,1-.07,0l-.32-.2a6.88,6.88,0,0,0-.87-.48,7.07,7.07,0,0,0-2.8-.71,9.21,9.21,0,0,0-1.51.14c-.47.07-.93.09-1.32.17l-1.36.21a.06.06,0,0,1-.06,0S155.86,194.09,155.87,194.08Z"/><path class="cls-5" d="M157.38,212.5c0,.82-2,2.23-4.48,2.23s-4.49-1.41-4.49-2.23a27.37,27.37,0,0,0,9,0Z"/><path class="cls-5" d="M158.45,200.36a1.28,1.28,0,1,0,2.56,0,1.28,1.28,0,0,0-2.56,0Z"/><path class="cls-5" d="M163.57,200.62a.26.26,0,0,1-.26-.26c0-.73-1.47-1.54-3.58-1.54s-3.58.81-3.58,1.54a.26.26,0,1,1-.51,0c0-1.15,1.79-2.06,4.09-2.06s4.1.91,4.1,2.06A.26.26,0,0,1,163.57,200.62Z"/><path class="cls-5" d="M162.91,199.61a.26.26,0,0,1-.18-.07.27.27,0,0,1,0-.37l.9-.9a.27.27,0,0,1,.37,0,.29.29,0,0,1,0,.37l-.9.9A.26.26,0,0,1,162.91,199.61Z"/><path class="cls-5" d="M161.9,199a.26.26,0,0,1-.18-.07.27.27,0,0,1,0-.37l.9-.89a.25.25,0,0,1,.37,0,.27.27,0,0,1,0,.36l-.9.9A.26.26,0,0,1,161.9,199Z"/><path class="cls-5" d="M147.34,200.36a1.28,1.28,0,1,1-1.28-1.28A1.28,1.28,0,0,1,147.34,200.36Z"/><path class="cls-5" d="M149.9,200.62a.26.26,0,0,1-.26-.26c0-.73-1.47-1.54-3.58-1.54s-3.58.81-3.58,1.54a.26.26,0,1,1-.51,0c0-1.15,1.79-2.06,4.09-2.06s4.1.91,4.1,2.06A.26.26,0,0,1,149.9,200.62Z"/><path class="cls-5" d="M142.88,199.61a.26.26,0,0,1-.19-.07l-.89-.9a.26.26,0,0,1,.37-.37l.89.9a.27.27,0,0,1,0,.37A.24.24,0,0,1,142.88,199.61Z"/><path class="cls-5" d="M143.89,199a.24.24,0,0,1-.18-.07l-.9-.9a.25.25,0,0,1,0-.36.25.25,0,0,1,.37,0l.89.89a.27.27,0,0,1,0,.37A.24.24,0,0,1,143.89,199Z"/><path class="cls-5" d="M106.77,235.89c-2.85-5.29-29.54-26.28-46.27-26.28s-43.42,21-46.26,26.28S2.49,318,2.49,318h116S109.62,241.18,106.77,235.89Z"/><path class="cls-5" d="M72.92,212.38,60.5,220.09l-12.41-7.71s-10.8,8.41-10.8,35.4V318H83.71V247.78C83.71,220.79,72.92,212.38,72.92,212.38Z"/><path class="cls-13" d="M46.73,189.17a5,5,0,1,1-5-5A5,5,0,0,1,46.73,189.17Z"/><path class="cls-13" d="M74.66,189.17a5,5,0,1,0,5-5A5,5,0,0,0,74.66,189.17Z"/><path class="cls-13" d="M60.5,222.7h0c-6.5,0-12.41-2.51-12.41-9V204H72.92v9.65C72.92,220.19,67,222.7,60.5,222.7Z"/><path class="cls-13" d="M69.88,206.1H51.51A7.47,7.47,0,0,1,44,198.39V182c0-9.42,7.13-17.06,16.55-17.06h0c9.43,0,16.56,7.64,16.56,17.06v16.39C77.06,202.74,74.23,206.1,69.88,206.1Z"/><path class="cls-13" d="M64.58,188.68a2.45,2.45,0,0,0-2.27-2.25H58.69a2.45,2.45,0,0,0-2.26,2.25,1.85,1.85,0,0,0-1.55,1.93V191a.81.81,0,0,0,.74.87h9.77a.82.82,0,0,0,.74-.87v-.43A1.85,1.85,0,0,0,64.58,188.68Z"/><path class="cls-5" d="M53.16,195.8c1.19,1.56,4,2.66,7.34,2.66s6.16-1.1,7.35-2.66Z"/><path class="cls-5" d="M66.79,183.72a1.28,1.28,0,1,0,1.28-1.28A1.28,1.28,0,0,0,66.79,183.72Z"/><path class="cls-5" d="M71.91,183.72a1.21,1.21,0,0,0-.65-.84,3.62,3.62,0,0,0-1-.43,8,8,0,0,0-2.18-.27,8.07,8.07,0,0,0-2.19.27,3.56,3.56,0,0,0-1,.43,1.19,1.19,0,0,0-.65.84c0-.85.84-1.37,1.53-1.64a6.71,6.71,0,0,1,4.62,0C71.06,182.35,71.94,182.87,71.91,183.72Z"/><path class="cls-5" d="M54.22,183.72a1.28,1.28,0,1,1-1.28-1.28A1.28,1.28,0,0,1,54.22,183.72Z"/><path class="cls-5" d="M49.1,183.72c0-.85.84-1.37,1.53-1.64a6.71,6.71,0,0,1,4.62,0c.69.27,1.57.79,1.53,1.64a1.19,1.19,0,0,0-.65-.84,3.56,3.56,0,0,0-1-.43,8.07,8.07,0,0,0-2.19-.27,8,8,0,0,0-2.18.27,3.62,3.62,0,0,0-1,.43A1.21,1.21,0,0,0,49.1,183.72Z"/><path class="cls-5" d="M45.15,189a.25.25,0,1,1-.25-.26A.25.25,0,0,1,45.15,189Z"/><circle class="cls-5" cx="76.11" cy="189.01" r="0.25"/><circle class="cls-5" cx="45.82" cy="189.98" r="0.25"/><circle class="cls-5" cx="75.19" cy="189.98" r="0.25"/><path class="cls-5" d="M45.15,190.93a.25.25,0,1,1-.25-.25A.25.25,0,0,1,45.15,190.93Z"/><circle class="cls-5" cx="46.74" cy="190.93" r="0.25"/><path class="cls-5" d="M74.52,190.93a.25.25,0,1,1-.25-.25A.25.25,0,0,1,74.52,190.93Z"/><circle class="cls-5" cx="76.11" cy="190.93" r="0.25"/><circle class="cls-5" cx="45.82" cy="191.91" r="0.25"/><circle class="cls-5" cx="75.19" cy="191.91" r="0.25"/><path class="cls-5" d="M45.15,192.85a.25.25,0,1,1-.25-.25A.25.25,0,0,1,45.15,192.85Z"/><circle class="cls-5" cx="46.74" cy="192.85" r="0.25"/><circle class="cls-5" cx="54.08" cy="192.85" r="0.25"/><circle class="cls-5" cx="55.92" cy="192.85" r="0.25"/><circle class="cls-5" cx="57.75" cy="192.85" r="0.25"/><circle class="cls-5" cx="59.59" cy="192.85" r="0.25"/><circle class="cls-5" cx="61.42" cy="192.85" r="0.25"/><circle class="cls-5" cx="63.26" cy="192.85" r="0.25"/><circle class="cls-5" cx="65.09" cy="192.85" r="0.25"/><circle class="cls-5" cx="66.93" cy="192.85" r="0.25"/><path class="cls-5" d="M74.52,192.85a.25.25,0,1,1-.25-.25A.25.25,0,0,1,74.52,192.85Z"/><circle class="cls-5" cx="76.11" cy="192.85" r="0.25"/><path class="cls-5" d="M46.07,193.83a.25.25,0,1,1-.25-.25A.25.25,0,0,1,46.07,193.83Z"/><path class="cls-5" d="M47.9,193.83a.25.25,0,0,1-.25.25.25.25,0,0,1,0-.5A.25.25,0,0,1,47.9,193.83Z"/><path class="cls-5" d="M53.41,193.83a.25.25,0,1,1-.25-.25A.25.25,0,0,1,53.41,193.83Z"/><path class="cls-5" d="M55.25,193.83a.25.25,0,1,1-.25-.25A.25.25,0,0,1,55.25,193.83Z"/><path class="cls-5" d="M57.08,193.83a.25.25,0,1,1-.25-.25A.25.25,0,0,1,57.08,193.83Z"/><path class="cls-5" d="M58.92,193.83a.25.25,0,1,1-.25-.25A.25.25,0,0,1,58.92,193.83Z"/><path class="cls-5" d="M60.76,193.83a.26.26,0,1,1-.26-.25A.26.26,0,0,1,60.76,193.83Z"/><path class="cls-5" d="M62.59,193.83a.25.25,0,1,1-.25-.25A.25.25,0,0,1,62.59,193.83Z"/><path class="cls-5" d="M64.43,193.83a.25.25,0,0,1-.25.25.25.25,0,0,1,0-.5A.25.25,0,0,1,64.43,193.83Z"/><path class="cls-5" d="M66.26,193.83a.25.25,0,1,1-.25-.25A.25.25,0,0,1,66.26,193.83Z"/><path class="cls-5" d="M68.1,193.83a.25.25,0,1,1-.25-.25A.25.25,0,0,1,68.1,193.83Z"/><path class="cls-5" d="M73.61,193.83a.26.26,0,1,1-.25-.25A.25.25,0,0,1,73.61,193.83Z"/><path class="cls-5" d="M75.44,193.83a.25.25,0,1,1-.25-.25A.25.25,0,0,1,75.44,193.83Z"/><path class="cls-5" d="M45.15,194.78a.25.25,0,1,1-.25-.26A.25.25,0,0,1,45.15,194.78Z"/><circle class="cls-5" cx="46.74" cy="194.78" r="0.25"/><circle class="cls-5" cx="48.57" cy="194.78" r="0.25"/><circle class="cls-5" cx="52.24" cy="194.78" r="0.25"/><circle class="cls-5" cx="54.08" cy="194.78" r="0.25"/><circle class="cls-5" cx="55.92" cy="194.78" r="0.25"/><circle class="cls-5" cx="57.75" cy="194.78" r="0.25"/><circle class="cls-5" cx="59.59" cy="194.78" r="0.25"/><circle class="cls-5" cx="61.42" cy="194.78" r="0.25"/><circle class="cls-5" cx="63.26" cy="194.78" r="0.25"/><circle class="cls-5" cx="65.09" cy="194.78" r="0.25"/><circle class="cls-5" cx="66.93" cy="194.78" r="0.25"/><circle class="cls-5" cx="68.77" cy="194.78" r="0.25"/><circle class="cls-5" cx="72.44" cy="194.78" r="0.25"/><path class="cls-5" d="M74.52,194.78a.25.25,0,1,1-.25-.26A.25.25,0,0,1,74.52,194.78Z"/><circle class="cls-5" cx="76.11" cy="194.78" r="0.25"/><circle class="cls-5" cx="45.82" cy="195.75" r="0.25"/><circle class="cls-5" cx="47.65" cy="195.75" r="0.25"/><path class="cls-5" d="M51.58,195.75a.26.26,0,1,1-.25-.25A.25.25,0,0,1,51.58,195.75Z"/><circle class="cls-5" cx="69.68" cy="195.75" r="0.25"/><circle class="cls-5" cx="73.36" cy="195.75" r="0.25"/><circle class="cls-5" cx="75.19" cy="195.75" r="0.25"/><path class="cls-5" d="M45.15,196.7a.25.25,0,1,1-.25-.25A.25.25,0,0,1,45.15,196.7Z"/><circle class="cls-5" cx="46.74" cy="196.7" r="0.25"/><circle class="cls-5" cx="48.57" cy="196.7" r="0.25"/><circle class="cls-5" cx="52.24" cy="196.7" r="0.25"/><circle class="cls-5" cx="68.77" cy="196.7" r="0.25"/><circle class="cls-5" cx="72.44" cy="196.7" r="0.25"/><path class="cls-5" d="M74.52,196.7a.25.25,0,1,1-.25-.25A.25.25,0,0,1,74.52,196.7Z"/><circle class="cls-5" cx="76.11" cy="196.7" r="0.25"/><circle class="cls-5" cx="45.82" cy="197.68" r="0.25"/><circle class="cls-5" cx="47.65" cy="197.68" r="0.25"/><circle class="cls-5" cx="49.49" cy="197.68" r="0.25"/><path class="cls-5" d="M51.58,197.68a.26.26,0,0,1-.51,0,.26.26,0,1,1,.51,0Z"/><circle class="cls-5" cx="53.16" cy="197.68" r="0.25"/><path class="cls-5" d="M68.1,197.68a.25.25,0,1,1-.25-.26A.25.25,0,0,1,68.1,197.68Z"/><circle class="cls-5" cx="69.68" cy="197.68" r="0.25"/><circle class="cls-5" cx="71.52" cy="197.68" r="0.25"/><circle class="cls-5" cx="73.36" cy="197.68" r="0.25"/><circle class="cls-5" cx="75.19" cy="197.68" r="0.25"/><path class="cls-5" d="M45.15,198.62a.25.25,0,1,1-.25-.25A.25.25,0,0,1,45.15,198.62Z"/><circle class="cls-5" cx="46.74" cy="198.62" r="0.25"/><circle class="cls-5" cx="48.57" cy="198.62" r="0.25"/><circle class="cls-5" cx="50.41" cy="198.62" r="0.25"/><circle class="cls-5" cx="52.24" cy="198.62" r="0.25"/><circle class="cls-5" cx="54.08" cy="198.62" r="0.25"/><circle class="cls-5" cx="55.92" cy="198.62" r="0.25"/><circle class="cls-5" cx="65.09" cy="198.62" r="0.25"/><circle class="cls-5" cx="66.93" cy="198.62" r="0.25"/><circle class="cls-5" cx="68.77" cy="198.62" r="0.25"/><circle class="cls-5" cx="70.6" cy="198.62" r="0.25"/><circle class="cls-5" cx="72.44" cy="198.62" r="0.25"/><path class="cls-5" d="M74.52,198.62a.25.25,0,1,1-.25-.25A.25.25,0,0,1,74.52,198.62Z"/><circle class="cls-5" cx="76.11" cy="198.62" r="0.25"/><path class="cls-5" d="M46.07,199.6a.25.25,0,1,1-.25-.25A.25.25,0,0,1,46.07,199.6Z"/><path class="cls-5" d="M47.9,199.6a.25.25,0,0,1-.25.25.25.25,0,0,1,0-.5A.25.25,0,0,1,47.9,199.6Z"/><path class="cls-5" d="M49.74,199.6a.25.25,0,1,1-.25-.25A.25.25,0,0,1,49.74,199.6Z"/><path class="cls-5" d="M51.58,199.6a.26.26,0,1,1-.25-.25A.25.25,0,0,1,51.58,199.6Z"/><path class="cls-5" d="M53.41,199.6a.25.25,0,1,1-.25-.25A.25.25,0,0,1,53.41,199.6Z"/><path class="cls-5" d="M55.25,199.6a.25.25,0,1,1-.25-.25A.25.25,0,0,1,55.25,199.6Z"/><path class="cls-5" d="M57.08,199.6a.25.25,0,1,1-.25-.25A.25.25,0,0,1,57.08,199.6Z"/><path class="cls-5" d="M58.92,199.6a.25.25,0,1,1-.25-.25A.25.25,0,0,1,58.92,199.6Z"/><path class="cls-5" d="M60.76,199.6a.26.26,0,1,1-.26-.25A.26.26,0,0,1,60.76,199.6Z"/><path class="cls-5" d="M62.59,199.6a.25.25,0,1,1-.25-.25A.25.25,0,0,1,62.59,199.6Z"/><path class="cls-5" d="M64.43,199.6a.25.25,0,0,1-.25.25.25.25,0,0,1,0-.5A.25.25,0,0,1,64.43,199.6Z"/><path class="cls-5" d="M66.26,199.6a.25.25,0,1,1-.25-.25A.25.25,0,0,1,66.26,199.6Z"/><path class="cls-5" d="M68.1,199.6a.25.25,0,1,1-.25-.25A.25.25,0,0,1,68.1,199.6Z"/><path class="cls-5" d="M69.93,199.6a.25.25,0,1,1-.25-.25A.25.25,0,0,1,69.93,199.6Z"/><path class="cls-5" d="M71.77,199.6a.25.25,0,1,1-.25-.25A.25.25,0,0,1,71.77,199.6Z"/><path class="cls-5" d="M73.61,199.6a.26.26,0,1,1-.25-.25A.25.25,0,0,1,73.61,199.6Z"/><path class="cls-5" d="M75.44,199.6a.25.25,0,1,1-.25-.25A.25.25,0,0,1,75.44,199.6Z"/><path class="cls-5" d="M45.15,200.55a.25.25,0,1,1-.25-.26A.25.25,0,0,1,45.15,200.55Z"/><circle class="cls-5" cx="46.74" cy="200.55" r="0.25"/><circle class="cls-5" cx="48.57" cy="200.55" r="0.25"/><circle class="cls-5" cx="50.41" cy="200.55" r="0.25"/><circle class="cls-5" cx="52.24" cy="200.55" r="0.25"/><circle class="cls-5" cx="54.08" cy="200.55" r="0.25"/><circle class="cls-5" cx="55.92" cy="200.55" r="0.25"/><circle class="cls-5" cx="57.75" cy="200.55" r="0.25"/><circle class="cls-5" cx="59.59" cy="200.55" r="0.25"/><circle class="cls-5" cx="61.42" cy="200.55" r="0.25"/><circle class="cls-5" cx="63.26" cy="200.55" r="0.25"/><circle class="cls-5" cx="65.09" cy="200.55" r="0.25"/><circle class="cls-5" cx="66.93" cy="200.55" r="0.25"/><circle class="cls-5" cx="68.77" cy="200.55" r="0.25"/><circle class="cls-5" cx="70.6" cy="200.55" r="0.25"/><circle class="cls-5" cx="72.44" cy="200.55" r="0.25"/><path class="cls-5" d="M74.52,200.55a.25.25,0,1,1-.25-.26A.25.25,0,0,1,74.52,200.55Z"/><circle class="cls-5" cx="76.11" cy="200.55" r="0.25"/><circle class="cls-5" cx="45.82" cy="201.52" r="0.25"/><circle class="cls-5" cx="47.65" cy="201.52" r="0.25"/><circle class="cls-5" cx="49.49" cy="201.52" r="0.25"/><path class="cls-5" d="M51.58,201.52a.26.26,0,1,1-.25-.25A.25.25,0,0,1,51.58,201.52Z"/><circle class="cls-5" cx="53.16" cy="201.52" r="0.25"/><circle class="cls-5" cx="55" cy="201.52" r="0.25"/><circle class="cls-5" cx="56.83" cy="201.52" r="0.25"/><circle class="cls-5" cx="58.67" cy="201.52" r="0.25"/><circle class="cls-5" cx="60.5" cy="201.52" r="0.25"/><circle class="cls-5" cx="62.34" cy="201.52" r="0.25"/><circle class="cls-5" cx="64.18" cy="201.52" r="0.25"/><circle class="cls-5" cx="66.01" cy="201.52" r="0.25"/><path class="cls-5" d="M68.1,201.52a.25.25,0,1,1-.25-.25A.25.25,0,0,1,68.1,201.52Z"/><circle class="cls-5" cx="69.68" cy="201.52" r="0.25"/><circle class="cls-5" cx="71.52" cy="201.52" r="0.25"/><circle class="cls-5" cx="73.36" cy="201.52" r="0.25"/><circle class="cls-5" cx="75.19" cy="201.52" r="0.25"/><circle class="cls-5" cx="46.74" cy="202.47" r="0.25"/><circle class="cls-5" cx="48.57" cy="202.47" r="0.25"/><circle class="cls-5" cx="50.41" cy="202.47" r="0.25"/><circle class="cls-5" cx="52.24" cy="202.47" r="0.25"/><circle class="cls-5" cx="54.08" cy="202.47" r="0.25"/><circle class="cls-5" cx="55.92" cy="202.47" r="0.25"/><circle class="cls-5" cx="57.75" cy="202.47" r="0.25"/><circle class="cls-5" cx="59.59" cy="202.47" r="0.25"/><circle class="cls-5" cx="61.42" cy="202.47" r="0.25"/><circle class="cls-5" cx="63.26" cy="202.47" r="0.25"/><circle class="cls-5" cx="65.09" cy="202.47" r="0.25"/><circle class="cls-5" cx="66.93" cy="202.47" r="0.25"/><circle class="cls-5" cx="68.77" cy="202.47" r="0.25"/><circle class="cls-5" cx="70.6" cy="202.47" r="0.25"/><circle class="cls-5" cx="72.44" cy="202.47" r="0.25"/><path class="cls-5" d="M74.52,202.47a.25.25,0,1,1-.25-.25A.25.25,0,0,1,74.52,202.47Z"/><circle class="cls-5" cx="45.82" cy="203.44" r="0.25"/><circle class="cls-5" cx="47.65" cy="203.44" r="0.25"/><circle class="cls-5" cx="49.49" cy="203.44" r="0.25"/><path class="cls-5" d="M51.58,203.44a.26.26,0,1,1-.25-.25A.26.26,0,0,1,51.58,203.44Z"/><circle class="cls-5" cx="53.16" cy="203.44" r="0.25"/><circle class="cls-5" cx="55" cy="203.44" r="0.25"/><circle class="cls-5" cx="56.83" cy="203.44" r="0.25"/><circle class="cls-5" cx="58.67" cy="203.44" r="0.25"/><circle class="cls-5" cx="60.5" cy="203.44" r="0.25"/><circle class="cls-5" cx="62.34" cy="203.44" r="0.25"/><circle class="cls-5" cx="64.18" cy="203.44" r="0.25"/><circle class="cls-5" cx="66.01" cy="203.44" r="0.25"/><path class="cls-5" d="M68.1,203.44a.25.25,0,1,1-.25-.25A.26.26,0,0,1,68.1,203.44Z"/><circle class="cls-5" cx="69.68" cy="203.44" r="0.25"/><circle class="cls-5" cx="71.52" cy="203.44" r="0.25"/><circle class="cls-5" cx="73.36" cy="203.44" r="0.25"/><circle class="cls-5" cx="75.19" cy="203.44" r="0.25"/><circle class="cls-5" cx="46.74" cy="204.39" r="0.25"/><circle class="cls-5" cx="48.57" cy="204.39" r="0.25"/><circle class="cls-5" cx="50.41" cy="204.39" r="0.25"/><circle class="cls-5" cx="52.24" cy="204.39" r="0.25"/><circle class="cls-5" cx="54.08" cy="204.39" r="0.25"/><circle class="cls-5" cx="55.92" cy="204.39" r="0.25"/><circle class="cls-5" cx="57.75" cy="204.39" r="0.25"/><circle class="cls-5" cx="59.59" cy="204.39" r="0.25"/><circle class="cls-5" cx="61.42" cy="204.39" r="0.25"/><circle class="cls-5" cx="63.26" cy="204.39" r="0.25"/><circle class="cls-5" cx="65.09" cy="204.39" r="0.25"/><circle class="cls-5" cx="66.93" cy="204.39" r="0.25"/><circle class="cls-5" cx="68.77" cy="204.39" r="0.25"/><circle class="cls-5" cx="70.6" cy="204.39" r="0.25"/><circle class="cls-5" cx="72.44" cy="204.39" r="0.25"/><path class="cls-5" d="M74.52,204.39a.25.25,0,1,1-.25-.25A.25.25,0,0,1,74.52,204.39Z"/><path class="cls-5" d="M49.74,205.37a.25.25,0,1,1-.25-.25A.25.25,0,0,1,49.74,205.37Z"/><path class="cls-5" d="M51.58,205.37a.26.26,0,1,1-.25-.25A.25.25,0,0,1,51.58,205.37Z"/><path class="cls-5" d="M53.41,205.37a.25.25,0,1,1-.25-.25A.25.25,0,0,1,53.41,205.37Z"/><path class="cls-5" d="M55.25,205.37a.25.25,0,1,1-.25-.25A.25.25,0,0,1,55.25,205.37Z"/><path class="cls-5" d="M57.08,205.37a.25.25,0,1,1-.25-.25A.25.25,0,0,1,57.08,205.37Z"/><path class="cls-5" d="M58.92,205.37a.25.25,0,1,1-.25-.25A.25.25,0,0,1,58.92,205.37Z"/><path class="cls-5" d="M60.76,205.37a.26.26,0,1,1-.26-.25A.26.26,0,0,1,60.76,205.37Z"/><path class="cls-5" d="M62.59,205.37a.25.25,0,1,1-.25-.25A.25.25,0,0,1,62.59,205.37Z"/><path class="cls-5" d="M64.43,205.37a.25.25,0,0,1-.25.25.25.25,0,1,1,0-.5A.25.25,0,0,1,64.43,205.37Z"/><path class="cls-5" d="M66.26,205.37a.25.25,0,1,1-.25-.25A.25.25,0,0,1,66.26,205.37Z"/><path class="cls-5" d="M68.1,205.37a.25.25,0,1,1-.25-.25A.25.25,0,0,1,68.1,205.37Z"/><path class="cls-5" d="M69.93,205.37a.25.25,0,1,1-.25-.25A.25.25,0,0,1,69.93,205.37Z"/><path class="cls-5" d="M71.77,205.37a.25.25,0,1,1-.25-.25A.25.25,0,0,1,71.77,205.37Z"/><path class="cls-5" d="M454.16,243c-1.6-4.72-16.61-23.42-26-23.42s-24.42,18.7-26,23.42-6.6,75-6.6,75h65.27S455.77,247.7,454.16,243Z"/><path class="cls-14" d="M420.53,212.81h15.22a0,0,0,0,1,0,0V225.2a7.61,7.61,0,0,1-7.61,7.61h0a7.61,7.61,0,0,1-7.61-7.61V212.81a0,0,0,0,1,0,0Z"/><path class="cls-14" d="M414.17,196a5,5,0,1,1-5-5A5,5,0,0,1,414.17,196Z"/><path class="cls-14" d="M442.1,196a5,5,0,1,0,5-5A5,5,0,0,0,442.1,196Z"/><path class="cls-14" d="M428.13,165.75h0a16.55,16.55,0,0,1,16.55,16.55V209a6,6,0,0,1-6,6h-21a6,6,0,0,1-6-6V182.3a16.55,16.55,0,0,1,16.55-16.55Z"/><path class="cls-5" d="M436.07,190.9c-.52-.07-1.05-.11-1.58-.13a1.2,1.2,0,0,0-.35.86,1.22,1.22,0,1,0,2.44,0,1.14,1.14,0,0,0-.21-.68Z"/><path class="cls-5" d="M436.07,190.9c-.55-.07-1.11-.11-1.67-.14l-.61.1a1.79,1.79,0,0,0-.19.77,1.76,1.76,0,0,0,3.52,0A1.79,1.79,0,0,0,437,191C436.69,191,436.39,191,436.07,190.9Zm-.71,1.42a.69.69,0,1,1,.69-.69A.69.69,0,0,1,435.36,192.32Z"/><path class="cls-5" d="M439,192.62a.25.25,0,0,1-.25-.25c0-.7-1.4-1.47-3.42-1.47s-3.42.77-3.42,1.47a.25.25,0,1,1-.49,0c0-1.1,1.72-2,3.91-2s3.91.86,3.91,2A.25.25,0,0,1,439,192.62Z"/><path class="cls-5" d="M420,190.82a1.24,1.24,0,0,0-.31.81,1.22,1.22,0,1,0,2.44,0,1.2,1.2,0,0,0-.34-.84Z"/><path class="cls-5" d="M419.35,190.83a1.79,1.79,0,0,0-.2.8,1.76,1.76,0,1,0,3.51,0,1.64,1.64,0,0,0-.23-.85Zm1.56,1.49a.69.69,0,1,1,.69-.69A.69.69,0,0,1,420.91,192.32Z"/><path class="cls-5" d="M424.58,192.62a.25.25,0,0,1-.25-.25c0-.7-1.4-1.47-3.42-1.47s-3.42.77-3.42,1.47a.25.25,0,0,1-.5,0c0-1.1,1.72-2,3.92-2s3.91.86,3.91,2A.25.25,0,0,1,424.58,192.62Z"/><path class="cls-5" d="M420.7,203.21h0a.26.26,0,0,1-.23-.27,2.45,2.45,0,0,1,2.28-2.46h0a.23.23,0,0,1,.24.23.24.24,0,0,1-.24.26,1.93,1.93,0,0,0-1.79,2A.25.25,0,0,1,420.7,203.21Z"/><path class="cls-5" d="M435.57,203.21a.25.25,0,0,1-.25-.23,1.93,1.93,0,0,0-1.79-2,.25.25,0,0,1,0-.49h0a2.45,2.45,0,0,1,2.28,2.46.26.26,0,0,1-.23.27Z"/><path class="cls-5" d="M428.13,205.06a6.2,6.2,0,0,1-4.43-1.55.24.24,0,0,1,0-.35.25.25,0,0,1,.35,0,6.67,6.67,0,0,0,8.15,0,.24.24,0,1,1,.36.33A6.21,6.21,0,0,1,428.13,205.06Z"/><path class="cls-14" d="M430.67,196.39c0,2.78-1.14,3.17-2.54,3.17s-2.53-.39-2.53-3.17a12.34,12.34,0,0,1,1.34-4.65,1.3,1.3,0,0,1,2.39,0A12.34,12.34,0,0,1,430.67,196.39Z"/><path class="cls-5" d="M424.31,185.92s-4.63-1.56-8.09.49"/><path class="cls-5" d="M432,185.92s4.63-1.56,8.09.49"/><path class="cls-5" d="M434.67,180.8a9.61,9.61,0,0,0-10.36-7.14c-8.66.5-12.73,7.35-12.73,18.15h0s-8.05-27.7,16.55-27.7,16.56,27.7,16.56,27.7S445.86,173.56,434.67,180.8Z"/><path class="cls-5" d="M420.53,222.42s-.33,9.59,7.6,10.39c0,0-6.73.79-7.47,7.28,0,0-4.71-7.83-1.51-16.72A2.11,2.11,0,0,1,420.53,222.42Z"/><path class="cls-5" d="M435.74,222.42s.32,9.59-7.61,10.39c0,0,6.74.79,7.48,7.28,0,0,4.71-7.83,1.51-16.72A2.15,2.15,0,0,0,435.74,222.42Z"/><path class="cls-5" d="M428.92,237.73a.79.79,0,1,1-.79-.78A.78.78,0,0,1,428.92,237.73Z"/><path class="cls-5" d="M428.92,242.05a.79.79,0,1,1-.79-.79A.78.78,0,0,1,428.92,242.05Z"/><path class="cls-5" d="M428.92,246.36a.79.79,0,1,1-.79-.78A.78.78,0,0,1,428.92,246.36Z"/><polygon class="cls-5" points="258.18 179.01 256.23 197.01 256.23 175.73 258.18 179.01"/><polygon class="cls-5" points="227.27 177.9 229.34 197.01 229.34 175.73 227.27 177.9"/><path class="cls-5" d="M281.34,243c-2.38-4.72-24.62-23.42-38.56-23.42s-36.17,18.7-38.55,23.42-9.78,75-9.78,75h96.67S283.71,247.7,281.34,243Z"/><path class="cls-15" d="M231.74,191.29c.5,3.14-.93,6-3.19,6.33s-4.49-1.9-5-5,.79-4.49,3.05-4.85S231.25,188.15,231.74,191.29Z"/><path class="cls-15" d="M254.09,191.29c-.5,3.14.93,6,3.18,6.33s4.49-1.9,5-5-.79-4.49-3.05-4.85S254.58,188.15,254.09,191.29Z"/><path class="cls-15" d="M252.44,206.1H233.13l-3.56,25.09s1.18,5.64,13.21,5.64S256,231.21,256,231.21Z"/><path class="cls-15" d="M245.89,166.78h-6.21l-10.34,2.07v29c0,16.3,10.34,18.62,10.34,18.62h6.21s10.34-2.32,10.34-18.62v-29Z"/><path class="cls-5" d="M248.79,189.91a1.22,1.22,0,1,0,1.22-1.22A1.23,1.23,0,0,0,248.79,189.91Z"/><path class="cls-5" d="M253.68,190.16a.25.25,0,0,1-.25-.25c0-.69-1.4-1.46-3.42-1.46s-3.42.77-3.42,1.46a.25.25,0,1,1-.49,0c0-1.1,1.72-2,3.91-2s3.91.86,3.91,2A.24.24,0,0,1,253.68,190.16Z"/><path class="cls-5" d="M236.78,189.91a1.22,1.22,0,1,1-1.22-1.22A1.23,1.23,0,0,1,236.78,189.91Z"/><path class="cls-5" d="M239.23,190.16a.25.25,0,0,1-.25-.25c0-.69-1.4-1.46-3.42-1.46s-3.42.77-3.42,1.46a.25.25,0,0,1-.25.25.24.24,0,0,1-.24-.25c0-1.1,1.71-2,3.91-2s3.91.86,3.91,2A.25.25,0,0,1,239.23,190.16Z"/><path class="cls-15" d="M244.84,197.17v-5.9a2.05,2.05,0,0,0-2.06-2.05h0a2.05,2.05,0,0,0-2.05,2.05v5.9a1.48,1.48,0,0,0-1.25,1.45,1.5,1.5,0,0,0,1.5,1.5h.19a2,2,0,0,0,3.23,0h.19a1.5,1.5,0,0,0,1.5-1.5A1.48,1.48,0,0,0,244.84,197.17Z"/><path class="cls-15" d="M245,204.05a3.11,3.11,0,0,0-2.25,1.19,3.08,3.08,0,0,0-2.24-1.19,2.69,2.69,0,0,0-2.73.89,19.26,19.26,0,0,0,4.82.67h.31a19.26,19.26,0,0,0,4.82-.67A2.69,2.69,0,0,0,245,204.05Z"/><path class="cls-15" d="M242.78,207.45a6.24,6.24,0,0,1-4.43-1.54.25.25,0,0,1,.36-.34,6.67,6.67,0,0,0,8.15,0,.25.25,0,1,1,.36.34A6.25,6.25,0,0,1,242.78,207.45Z"/><path class="cls-5" d="M258.18,179c-9-8.1-9.8,1.91-21.4,1.91s-20-9.61-14.66-14.14a4.34,4.34,0,0,1,1.77-5.88,5.75,5.75,0,0,1,7,.47,3.16,3.16,0,0,1,3.47-2.53c3.14,0,3.34,4.85,11,3.15S261.74,164,258.18,179Z"/><path class="cls-5" d="M100.91,181.5c1.18,1.56,4,2.65,7.34,2.65s6.16-1.09,7.35-2.65Z"/></g></g></svg>