<?xml version="1.0" encoding="UTF-8" standalone="no"?> <svg xmlns="http://www.w3.org/2000/svg" viewBox="0 0 512 512"><defs><style>.cls-1{fill:#f1c40f;}.cls-2{fill:#f39c12;}.cls-3{fill:#ffd18d;}.cls-4{fill:#eaab71;}.cls-5{fill:#2ecc71;}.cls-6{fill:#27ae60;}</style></defs><title>Alms</title><g id="Layer_1" data-name="Layer 1"><circle class="cls-1" cx="298.943" cy="309.333" r="106.667"/><circle class="cls-1" cx="298.943" cy="309.333" r="106.667"/><path class="cls-2" d="M298.943,244.267a106.7,106.7,0,0,1,104.634,85.866,106.667,106.667,0,1,0-209.267,0A106.7,106.7,0,0,1,298.943,244.267Z"/><path class="cls-3" d="M480,276.683v32.251c0,20.689-16.931,38.1-37.617,37.727a37.871,37.871,0,0,1-25.914-10.928,36.978,36.978,0,0,1-11.136-26.4,106.679,106.679,0,0,0-204.448-42.666h76.448a53.332,53.332,0,0,1,53.332,52.95,21.527,21.527,0,0,1-21.482,21.716H176.148a53.331,53.331,0,0,1-29.584-8.957L96,298.667l-21.552.055V149.443L96,149.333l184.171-43.85a106.723,106.723,0,0,1,75.786,10.122l64.534,35.2a53.353,53.353,0,0,1,23.978,27.019l31.819,79.541A53.162,53.162,0,0,1,480,276.683Z"/><path class="cls-4" d="M96,259.2l-10.13,39.492L96,298.667l50.564,33.709a53.331,53.331,0,0,0,29.584,8.957H309.183a21.527,21.527,0,0,0,21.482-21.716A53.292,53.292,0,0,0,328.224,304H171.04Z"/><path class="cls-5" d="M96,149.333V298.667A21.328,21.328,0,0,1,74.667,320H53.333A21.334,21.334,0,0,1,32,298.667V149.333A21.334,21.334,0,0,1,53.333,128H74.667A21.328,21.328,0,0,1,96,149.333Z"/><path class="cls-6" d="M64,320h0a32,32,0,0,1-32-32V264.036H96V288A32,32,0,0,1,64,320Z"/><path d="M486.184,253.4,454.365,173.86a64.132,64.132,0,0,0-28.776-32.416l-64.533-35.2a117.148,117.148,0,0,0-83.362-11.136L103.959,136.473a32.042,32.042,0,0,0-29.293-19.14H53.333a32.037,32.037,0,0,0-32,32V298.667a32.037,32.037,0,0,0,32,32H74.666a32.006,32.006,0,0,0,27.244-15.238l52.169,34.779A10.658,10.658,0,0,0,160,352h29.336a117.358,117.358,0,0,0,221.174-7.181,48.423,48.423,0,0,0,32.552,12.514c26.251,0,47.608-21.532,47.608-48V276.588A63.74,63.74,0,0,0,486.184,253.4ZM74.666,309.333H53.333a10.679,10.679,0,0,1-10.667-10.666V149.333a10.679,10.679,0,0,1,10.667-10.666H74.666a10.679,10.679,0,0,1,10.667,10.666V298.6c0,.047,0,.094,0,.14A10.677,10.677,0,0,1,74.666,309.333Zm224,96A96.229,96.229,0,0,1,212.636,352h96.693a32.036,32.036,0,0,0,32-32,64,64,0,0,0-64-64H218.818a96.008,96.008,0,1,1,79.844,149.333Zm170.671-96c0,14.953-11.542,26.667-26.276,26.667A26.894,26.894,0,0,1,416,309.333c0-.037-.006-.073-.006-.11A117.344,117.344,0,0,0,191.105,262.4a10.667,10.667,0,0,0,9.776,14.934h76.448A42.669,42.669,0,0,1,320,320a10.68,10.68,0,0,1-10.667,10.667h-146.1l-56.559-37.706v-135.2l175.97-41.9a95.861,95.861,0,0,1,68.2,9.111l64.534,35.2a42.762,42.762,0,0,1,19.183,21.61l31.818,79.543a42.373,42.373,0,0,1,2.957,15.358Z"/></g></svg>