<svg xmlns="http://www.w3.org/2000/svg" xmlns:xlink="http://www.w3.org/1999/xlink" viewBox="0 0 469.22 500"><defs><style>.cls-1{fill:#66efc5;}.cls-2{fill-rule:evenodd;fill:url(#linear-gradient);}.cls-3{font-size:30px;font-family:Avenir-Black, Avenir;}.cls-3,.cls-4{fill:#333;font-weight:800;}.cls-4{font-size:20px;font-family:Avenir-Heavy, Avenir;}.cls-12,.cls-5,.cls-6{fill:#f2f2f2;}.cls-10,.cls-11,.cls-12,.cls-5,.cls-6,.cls-7,.cls-8,.cls-9{stroke:#662d91;stroke-miterlimit:10;}.cls-6{opacity:0.1;}.cls-7{fill:url(#linear-gradient-2);}.cls-8{fill:url(#linear-gradient-3);}.cls-9{fill:url(#linear-gradient-4);}.cls-10{fill:url(#linear-gradient-5);}.cls-11{fill:url(#linear-gradient-6);}.cls-12{opacity:0.47;}</style><linearGradient id="linear-gradient" x1="234.61" y1="318.52" x2="234.61" gradientUnits="userSpaceOnUse"><stop offset="0" stop-color="#7df8ff"/><stop offset="0.14" stop-color="#95def9"/><stop offset="0.29" stop-color="#a9c9f5"/><stop offset="0.46" stop-color="#b7baf2"/><stop offset="0.66" stop-color="#bfb1f0"/><stop offset="0.96" stop-color="#c2aeef"/></linearGradient><linearGradient id="linear-gradient-2" x1="243.96" y1="170.69" x2="244.04" y2="170.69" gradientUnits="userSpaceOnUse"><stop offset="0" stop-color="#66efc5"/><stop offset="0.29" stop-color="#65efc8"/><stop offset="0.52" stop-color="#62efd2"/><stop offset="0.73" stop-color="#5deee3"/><stop offset="0.93" stop-color="#56eefa"/><stop offset="0.96" stop-color="#5ef"/></linearGradient><linearGradient id="linear-gradient-3" x1="210.02" y1="218.42" x2="284.71" y2="218.42" xlink:href="#linear-gradient-2"/><linearGradient id="linear-gradient-4" x1="240.01" y1="207.32" x2="248.41" y2="207.32" xlink:href="#linear-gradient-2"/><linearGradient id="linear-gradient-5" x1="247.72" y1="210.11" x2="252.88" y2="210.11" xlink:href="#linear-gradient-2"/><linearGradient id="linear-gradient-6" x1="254.32" y1="211" x2="256.03" y2="211" xlink:href="#linear-gradient-2"/></defs><g id="Layer_2" data-name="Layer 2"><g id="Layer_1-2" data-name="Layer 1"><rect class="cls-1" width="469.22" height="500" rx="31.48"/><path class="cls-2" d="M0,318.52v-287A31.47,31.47,0,0,1,31.48,0H437.74a31.48,31.48,0,0,1,31.48,31.48v287Z"/><text class="cls-3" transform="translate(97.84 391.56)">IT IS SUSTAINABLE</text><text class="cls-4" transform="translate(34.85 424.43)">We must rethink our resource consumption <tspan x="62.05" y="24">if we want to save our planet.</tspan></text><path class="cls-5" d="M384.88,265.25c.11-.14.23-.29.33-.44,5.91-8-4-11.05-13.2-12.61A384,384,0,0,0,317.54,247q-9.27-.24-18.53-.43c-25.33-.92-50.83-1.9-76.14-1.74-12,.08-24-1-36-1.08s-24.05.21-36,.94a388.67,388.67,0,0,0-50.66,6.17c-10.7,2.1-34.32,4.58-32,15.84.81,3.89,4.78,7.19,9.58,9.11,6.76,2.7,14.66,2.95,22.19,3.23q13.62.51,27.25.87c39.87,1,79.94,1.64,119.85,1.13l8.6-.1c17.84-.24,36.16-.88,54.17-1.55,17-.63,34.53-.93,51.22-3.56C370.32,274.36,380,271.42,384.88,265.25Z"/><path class="cls-5" d="M280.35,172.55c-.93-.7-1.82-1.44-2.7-2.06a38,38,0,0,1-6.1-5.17c-.87-.95-1.74-2.27-1.31-3.43a2.11,2.11,0,0,1,2.36-1.16,7.82,7.82,0,0,1,2.71,1.21c2.38,1.4,4.85,2.65,7.2,4.09,2,1.21,4.5,2.5,5.26,4.95a3.14,3.14,0,0,1-.4,2.77,3.2,3.2,0,0,1-3.58.82A13.48,13.48,0,0,1,280.35,172.55Z"/><path class="cls-5" d="M279.51,146.45a1.21,1.21,0,0,0,.16-.16.77.77,0,0,0,.18-.85c-.5-.84-1.87.77-1.58-.7.08-.4,1.67-2.35,1.54-2.56a2.07,2.07,0,0,0-3.26-.38,6.23,6.23,0,0,0-1.06,2.65c-.23,1.08-.26,2.21-.51,3.28a12.35,12.35,0,0,1-1.13,2.46c-1.85,3.61-4.14,7.64-3.9,11.72.07,1.25.34,1.76,1.41,2.07a3.22,3.22,0,0,0,3.17-.44,5.17,5.17,0,0,0,1.29-3.1c.29-1.69.72-3.42.91-5.1s-.08-3.16.37-4.75a12,12,0,0,1,1.89-3.66C279.15,146.75,279.34,146.61,279.51,146.45Z"/><path class="cls-5" d="M287.7,179.75a11,11,0,0,1-9.5-2.59c.78-2.46,2.54-3.92,3.87-6,.43-.68.82-1.38,1.22-2.09.65-1.16,1.92-4.65,3.62-3.35a25.67,25.67,0,0,1,2,2.33c1,1,2.34,1.45,3.31,2.48a5.28,5.28,0,0,1,1.57,4.22,5.81,5.81,0,0,1-3.24,4A10.19,10.19,0,0,1,287.7,179.75Z"/><path class="cls-5" d="M308.78,154a20.15,20.15,0,0,1,0,2.2,11.49,11.49,0,0,0-.15,2.41,7.82,7.82,0,0,0,.6,1.47,5.05,5.05,0,0,1-.6,4.84c-.35.47-.78.88-1.08,1.37a8.24,8.24,0,0,0-.77,2.75,19.13,19.13,0,0,1-1,2.63,8.32,8.32,0,0,0-.05,4.09,2,2,0,0,1,0,.95,1,1,0,0,1-1,.62A91.66,91.66,0,0,1,289,175.94c.41.06.44-3.77.42-4.07a21.74,21.74,0,0,0-.88-4.53,6.73,6.73,0,0,1-.48-2.33c.06-1.12.76-2.24.43-3.32s-1.15-1.7-1.18-2.77a5.59,5.59,0,0,1,1.54-3.24,12.39,12.39,0,0,0,1.57-2.29,17.4,17.4,0,0,1,.76-2.09,10.69,10.69,0,0,1,3.52-3.43,6.43,6.43,0,0,1,1.66-.77,6.57,6.57,0,0,1,2.17-.14,43.44,43.44,0,0,1,4.85.82,6.77,6.77,0,0,1,4.22,2.87A7,7,0,0,1,308.78,154Z"/><path class="cls-5" d="M288.93,157.1a1.66,1.66,0,0,1,1.65-.67,1.49,1.49,0,0,1,.77.4,14.49,14.49,0,0,1,1-3,5.79,5.79,0,0,1,1.17-1.78,5.2,5.2,0,0,1,1.58-1,9,9,0,0,1,6.23-.28,6.86,6.86,0,0,1,5,5.14,11.17,11.17,0,0,1,.26,2.72s0,.08,0,.12a1.54,1.54,0,0,1,.62-.07,1.66,1.66,0,0,1,1.41,1.09,2.24,2.24,0,0,1-.18,1.82,3.46,3.46,0,0,1-1.33,1.3,2.25,2.25,0,0,1-1.09.34,8.16,8.16,0,0,1-3.57,5.37c-1.34.75-1.38,1.11-1.58,2.71a2.63,2.63,0,0,1-1.11,2.12,2.68,2.68,0,0,1-1.28.23,13.37,13.37,0,0,1-1.79-.15,2.16,2.16,0,0,1-1.26-.52,2.37,2.37,0,0,1-.32-2c.29-1.93.24-1.69-1.07-2.83a7.43,7.43,0,0,1-1.91-2.72,13.52,13.52,0,0,1-1.07-4.3.57.57,0,0,1-.29,0,1.92,1.92,0,0,1-1.2-.65,3.47,3.47,0,0,1-.94-1.61A2.26,2.26,0,0,1,288.93,157.1Z"/><path class="cls-5" d="M303.13,161.29a.12.12,0,0,1,0,.24A.12.12,0,0,1,303.13,161.29Z"/><path class="cls-5" d="M304,162.65a.12.12,0,0,1,0,.24A.12.12,0,0,1,304,162.65Z"/><path class="cls-5" d="M300.86,162.07v0c0,.15-.26.13-.24,0v0A.12.12,0,0,1,300.86,162.07Z"/><path class="cls-5" d="M298.57,161.12a.12.12,0,0,1,0,.24A.12.12,0,1,1,298.57,161.12Z"/><path class="cls-5" d="M297.58,161.4a.12.12,0,0,1,0,.24C297.41,161.62,297.42,161.38,297.58,161.4Z"/><path class="cls-5" d="M294.05,161.27v0a.12.12,0,0,1-.24,0v0A.12.12,0,1,1,294.05,161.27Z"/><path class="cls-5" d="M292.93,160.25a.12.12,0,0,1,0,.24A.12.12,0,0,1,292.93,160.25Z"/><path class="cls-5" d="M294.73,160.32a.12.12,0,0,1,0,.24A.12.12,0,0,1,294.73,160.32Z"/><path class="cls-5" d="M295.32,161.05a.12.12,0,0,1,0,.24A.12.12,0,0,1,295.32,161.05Z"/><path class="cls-5" d="M293.76,160.4h0a.12.12,0,1,1,0,.24h0A.12.12,0,0,1,293.76,160.4Z"/><path class="cls-5" d="M302.82,162.23h0a.12.12,0,0,1,.09.17.1.1,0,0,1,0,.12l-.05,0a.12.12,0,0,1-.17-.16A.12.12,0,0,1,302.82,162.23Z"/><path class="cls-5" d="M303.94,161.76a.12.12,0,0,1,0,.24A.12.12,0,0,1,303.94,161.76Z"/><path class="cls-5" d="M300.44,160.83v0c0,.15-.26.13-.24,0v0A.12.12,0,0,1,300.44,160.83Z"/><path class="cls-6" d="M299.92,161.92s0-.06,0-.09a1,1,0,0,1,.64-.82,2.41,2.41,0,0,1,1.07-.11,14.68,14.68,0,0,1,1.75.22,4.14,4.14,0,0,1,1.25.39,1.68,1.68,0,0,1,.82,1,1.09,1.09,0,0,1-.54,1.25c-.58.24-1.42-.17-2-.36a21.35,21.35,0,0,1-2.12-.55C300.4,162.66,300,162.35,299.92,161.92Z"/><path class="cls-6" d="M292,161.43a.16.16,0,0,1,0-.09,1,1,0,0,1,.4-1,2.61,2.61,0,0,1,1-.37,14.81,14.81,0,0,1,1.74-.23,4.1,4.1,0,0,1,1.31.07c.53.14,1.36.63,1.14,1.24a1.09,1.09,0,0,1-.19.33,1.53,1.53,0,0,1-.86.51,4.43,4.43,0,0,1-1,.11,14,14,0,0,1-2.42,0A1.38,1.38,0,0,1,292,161.43Z"/><path class="cls-5" d="M294.86,154a4.63,4.63,0,0,1-.62,1.18,30,30,0,0,0-2.23,2.43,6.47,6.47,0,0,0-.55,4.15,32.8,32.8,0,0,0,.61,3.7,2.45,2.45,0,0,1,.13,1.36c-.12.39-.48.63-.64,1-.54,1.29.94,3,2.06,3.51a9.28,9.28,0,0,1-4.88,2.69c-.79.15-1.54-2.87-1.68-3.33a6.39,6.39,0,0,1,.34-4.61c.43-.88,1.07-1.64,1.54-2.5a7.94,7.94,0,0,0,1-4.18,16.58,16.58,0,0,1-.1-2.63,7.74,7.74,0,0,1,.52-1.76,15.22,15.22,0,0,1,2.65-4.78c1.16-1.27,3.08-2.48,4.85-2a4.71,4.71,0,0,1,2.53,1.65c.4.52,1.53,2,.19,2.21a13.33,13.33,0,0,1-2.19,0,5.77,5.77,0,0,0-2.15.28A2.31,2.31,0,0,0,294.86,154Z"/><path class="cls-5" d="M302.75,153.29c1,.37,2.66,1,2.66,2.19s-.8,2.35-.55,3.7a7.39,7.39,0,0,0,.85,1.88,3.79,3.79,0,0,1,.26,3.32c-.53,1.05-1.74,1.66-2.17,2.76s.12,2.53-.13,3.77c-.21,1.05-.17,1.69.91,2.21a4.4,4.4,0,0,1,1.55,1c.11.13.8,1.68.4,1.72,1.16-.1,2.52-.31,3.07-1.34a2.29,2.29,0,0,0,0-1.85,5.63,5.63,0,0,0-1-1.59,3.2,3.2,0,0,1-.61-.89,2.53,2.53,0,0,1,.34-2.09,8.37,8.37,0,0,0,1-2c.53-2.15-1.45-3.51-2.05-5.35-.88-2.71,1.73-5.59,1-8.36a6.32,6.32,0,0,0-1.29-2.3,6.14,6.14,0,0,0-3.19-2.45c-1.71-.4-3.28.9-4.2,2.17a8.93,8.93,0,0,0-.66,1.06c-.35.64-.45.63.1,1a17.26,17.26,0,0,0,3.56,1.33Z"/><polygon class="cls-5" points="299.82 229.34 300.35 238.41 305.54 259.83 309.45 258.87 307.19 237.63 309.56 228.26 299.82 229.34"/><path class="cls-5" d="M305.1,259.34a2.49,2.49,0,0,1,0,1.89c-.33.57-1,.78-1.23,1.47a1.62,1.62,0,0,0,0,.9,1.31,1.31,0,0,0,.3.6,1.59,1.59,0,0,0,1.05.31,6.76,6.76,0,0,0,1.74-.08,5.42,5.42,0,0,0,2.47-1.55c.59-.58,1.22-1.05,1.1-2a3,3,0,0,0-.27-.81,8.14,8.14,0,0,1-.55-2.17l-4.92.78C305,258.88,305,259.1,305.1,259.34Z"/><polygon class="cls-5" points="290.34 230.15 290.37 239.24 294.37 260.92 298.33 260.17 297.25 238.83 300.12 229.61 290.34 230.15"/><path class="cls-5" d="M294,260.4a2.55,2.55,0,0,1,0,1.89c-.36.54-1.08.72-1.32,1.4a1.83,1.83,0,0,0,0,.9,1.35,1.35,0,0,0,.27.61,1.5,1.5,0,0,0,1,.37,6.34,6.34,0,0,0,1.74,0,5.36,5.36,0,0,0,2.55-1.4c.62-.55,1.28-1,1.21-1.94a3.39,3.39,0,0,0-.22-.83,7.75,7.75,0,0,1-.44-2.19l-5,.51C293.84,259.93,293.9,260.16,294,260.4Z"/><path class="cls-5" d="M303.78,172.22c4.18,20.31,10.73,37.72,19.1,51.94-2,.18-3.32,2.32-4.8,3.81a12.91,12.91,0,0,1-5,3c-7.73,2.69-15.85-.32-23.73.91a33.81,33.81,0,0,1-5.79.83c-3.9-.07-7.66-1.45-11.25-2.77-.24-.09-3.39-1.09-3.29-1.34q4-10.29,8.06-20.59c1.46-3.72,2.92-7.45,4.06-11.28a110.88,110.88,0,0,0,2.89-13.22c.66-3.88.79-7.85,3.44-11.09a6.55,6.55,0,0,1,4-2.39c1.59-.21,3.48.41,5.07.64C297.39,170.75,303.65,171.21,303.78,172.22Z"/><path class="cls-5" d="M243.13,170.17l1.73-2.14.09-1.59,1.43-1.78s1.14.69,1,.83a1.39,1.39,0,0,0-.26,1.19,3.19,3.19,0,0,0,1.74-1.47c.18-.36.3-.84.68-1s.84.22,1.12.56a3,3,0,0,1,.73,1.36,2.76,2.76,0,0,1-.65,1.94,8.71,8.71,0,0,1-3.68,2.53L245,172.47Z"/><path class="cls-5" d="M233.09,175.67c3.87-1.18,7.52-5.58,10.34-7.82a8.52,8.52,0,0,1,2.63,2.37c.9,1.24.82,1.35,0,2.49a44.49,44.49,0,0,1-5,5.3c-4.34,4.15-7.43,8.18-14.18,7.69a29.46,29.46,0,0,1-5.41-1.08l-7-1.88a6.89,6.89,0,0,1-1.71-.63c-4.15-2.39.57-8.84,2.25-11.32s1.85-3.76,5-2.11c2.42,1.26,4.38,3.24,6.41,5a13,13,0,0,0,1.82,1.41A5.71,5.71,0,0,0,233.09,175.67Z"/><path class="cls-5" d="M196.17,254.46c.33,1.32.58,2.65.83,4l3,1.86c.59-.2,1.49-.33,2-.54.9-.36,1.34-1,.86-1.91a8.28,8.28,0,0,0-.6-.82c-.36-.49-1.19-1.5-1.76-2.18s-1.42-1.65-2-2.37Z"/><path class="cls-5" d="M207.45,254.38c.29,1.36.57,2.71.86,4.07l3,1.85c.61-.41,1.54-.89,2.09-1.28.81-.57.92-1.3.27-1.94h0c-.6-.79-1.26-1.5-1.9-2.27l-2-2.35Z"/><path class="cls-5" d="M214,199.49c-9.13-2-18.37-3.17-27.55-5.06-.39,4.88-.74,2.35-1,8.89a135,135,0,0,0,2,26.73,136,136,0,0,0,7.85,25.17c1.67-.33,3.35-.69,5-1.16-1.57-7.42-2.74-16.43-2.19-23.68a91.54,91.54,0,0,1,3-19c3.71-1.42,7.46-2.86,11.3-4C212.86,204.74,213.37,202.09,214,199.49Z"/><path class="cls-5" d="M212.44,207.35c-1.51,7.62-1.32,14.06-1.56,22a142.7,142.7,0,0,0,1.48,24.83c-1.75.52-3.36,1-5,1.39a206.29,206.29,0,0,1-6.85-26.39c-1.6-8.34-2.72-15.15-2.47-23.35C202.81,206.39,207.56,206.78,212.44,207.35Z"/><path class="cls-5" d="M224.45,150.7a5.23,5.23,0,0,1,1.56-1.44,1.87,1.87,0,0,1,1.61-.34,1,1,0,0,1,.58,1A3.83,3.83,0,0,1,228,151c1.38.28,2.81-.46,4.16-.38a7.08,7.08,0,0,1,2.45.76,4.47,4.47,0,0,1,1.46.86,8.32,8.32,0,0,1,2.48,6c-.28,3.93-3.75,7.51-7.49,8.56a12,12,0,0,1-1.66.29l-2.26.3a4.94,4.94,0,0,1-2.83-.17c-2.27-1.1-3-4.17-6-3a3.12,3.12,0,0,1-1,.35,2.58,2.58,0,0,1-1.74-.79c-.56-.52-1.27-1-1.13-1.89s1-1.27,1.57-1.94,1-1.58,1.57-2.31a30.18,30.18,0,0,1,3-3.1c.93-.83,2.29-1.41,3.12-2.23a1.43,1.43,0,0,0,.27-.57A4,4,0,0,1,224.45,150.7Z"/><path class="cls-5" d="M232.93,146.49a12.53,12.53,0,0,1,3.76,1.84,6.75,6.75,0,0,1,2.33,2.44c1,2.14.71,6.75,3.62,7.39a1.61,1.61,0,0,1,1.27,2.18c-.1.32-.36.47-.46.77s-.2.58.07.85.71,0,1.07.3a.84.84,0,0,1-.11,1.23c-.21.16-.54.18-.72.32s-.17.28-.31.41a1.18,1.18,0,0,1-1,.47c-.18,0-.34-.12-.54-.12a2.47,2.47,0,0,0-1,.38,3.28,3.28,0,0,1-2.27,0,5.71,5.71,0,0,1-2,1.31,11.52,11.52,0,0,1-4.1,0,5.8,5.8,0,0,1,1-.88,6.16,6.16,0,0,0,1.67-2.24c.19-.44.31-.89.52-1.31l-.09-.13a2.82,2.82,0,0,1-.48-.87,3.9,3.9,0,0,1,0-1.24,11.19,11.19,0,0,0-1.14-5.7c-1.08-1.94-2.63-2.32-4.76-2.32-.5,0-1.44.36-1.9.06-.7-.46.2-1.06,0-1.56-.51-1.35-1.82-.07-2.36.56s-.63,1.24-1.07,1.75a12,12,0,0,1-2.32,1.68,3.73,3.73,0,0,1-2.48.93c-.08,0-.17,0-.18-.12a.29.29,0,0,1,0-.09,13.76,13.76,0,0,1,7.37-7.89c1.44-.73,3.07-1.49,4.63-1C231.59,146.08,232.26,146.27,232.93,146.49Z"/><path class="cls-5" d="M215.13,198.54c.34-2.31.67-4.64,1.24-6.92s1.36-4.61,2.12-6.83c1.14-3.35,2.31-6.91,3.48-10.15,1.05-2.93,1.43-4.37-.49-6.93-.61-.8-2.39-1.46-2.53-2.59-.07-.54.49-.8.1-1.38a4.94,4.94,0,0,0-.55-.57,6.32,6.32,0,0,1-.93-2,6,6,0,0,0-1.2-1.86,1.11,1.11,0,0,0-.57-.37,1.27,1.27,0,0,0-.54.08,26.92,26.92,0,0,1-4.24,1c-1.32.18-2.69,0-4,.3a10.7,10.7,0,0,0-3.75,1.67A25.16,25.16,0,0,0,198,166.5a32.62,32.62,0,0,0-4,5.71,73.26,73.26,0,0,0-8.34,22.67,10.84,10.84,0,0,0-.39,4.2c.29,1.37,1.58,1.47,2.71,1.89a58,58,0,0,0,8.17,2.51A76.42,76.42,0,0,0,212.9,205a1.51,1.51,0,0,0,.88-.21,1.28,1.28,0,0,0,.42-.84C214.61,202.14,214.87,200.36,215.13,198.54Z"/><circle class="cls-5" cx="244.49" cy="219.14" r="53.44"/><path class="cls-5" d="M257.24,167.24c.95.23,1.89.49,2.82.77Z"/><path class="cls-7" d="M244,170.69h0Z"/><path class="cls-8" d="M263.27,169.1a15.8,15.8,0,0,0-4.54.07,6.23,6.23,0,0,0,1.33-1.16c-.93-.28-1.87-.54-2.82-.77l-.21.07c-1.29.45-1.48.5-1.27,1.31a8.56,8.56,0,0,1-1.42-.71h-6.19c3.92,4.34-3.67,4.05-6.45,4.06-.51,0-.62-1-.34-1.28a17.67,17.67,0,0,1,2.68,0c2.52,0,2.21-.2,2.21-2.78-2.51,1.86-2.43,0-5.28,0a12.82,12.82,0,0,0-6.32,1.2l2.29,1.95c-1-.21-4.09-1.44-4.95-1.08-.4.17-.5,1.23-1,1.23-2,0-7.41,1.09-7.41-1.19,0,0,0,0-.1,0A53.56,53.56,0,0,0,210,178.31a32.36,32.36,0,0,1,5.81-.27,23.91,23.91,0,0,1,1.89,4.55c.09,1.84-1.17,2.57-2.1,4.32a22.06,22.06,0,0,0-2.25,11c0,.13,2.13,2,2.13,2.81,0,3.17.34,3.23,2.52,5.57v-3.9c1.3,3.41,2.88,4.73,4,8.07,1.34,3.79,6.61.88,8.41,3.37.78,1.1,2.26.6,3,1.67l1.91,2.92c1.15,1.75,2.55,1.14,4.61,1.14s-1.8,6.83-1.8,7.4c0,2.36,3.23,7.75,3.21,8.7-.06,2.8,3.45,3.2,5.35,4.93,1.52,1.39.44,5.34.39,7.1a11.1,11.1,0,0,0,.73,4.07h0c.41,1.18.94,2.31,1.41,3.47.09.2.17.4.25.61s.06.18.1.27l.18.52.09.29c.06.18.11.36.16.55s.05.17.07.26c.07.27.13.55.18.83.25,1.43-.3,3,0,4.36s1.54,2.3,1.52,3.86c0,2.42,6.77,2.87,8.08,2.87,0,0-5-2.57-5-2.26,0-2.29,1.18-2.14,1.18-3.53,0-1.66-1.5-3-.56-5.38,1-2.54.9-2.47,3.65-2.47a16.09,16.09,0,0,0-.53-3.45c2.46-3.83,8.19-7.52,9.7-8.56,2.06-1.41.91-5.2,1.8-7.23.78-1.77,3.15-3.42,3.27-5.6,0-.12,0-.23,0-.33a.22.22,0,0,0,0-.08,1.7,1.7,0,0,0,0-.22s0,0,0-.06a1.43,1.43,0,0,0-.08-.22v0a1.16,1.16,0,0,0-.13-.22h0a2.63,2.63,0,0,0-2.32-.88c-1.21,0-1.34-2-2.26-2a12.16,12.16,0,0,1-7.42-2.08c-.37-.27-.78-3.53-1.41-4.34-.89-1.16-3.76.87-4.88-.7-.42-.6-1.42-2.93-2.1-2.93-.92,0-6-1-7.1,0,.16-.15-1.75-.73-2-.73.12,0-6.56,3.46-6.56,1.66,0-2.33,1.14-5.34-1.62-5.34-4.44,0-.67-1.15-.67-3.18,0-2.61-4.3.71-6.56.71.06,0-2.55-4.28-1.3-4.28.9,0,1-1.83,1.71-2.61,1.75-2.05,4.74-2.26,6.85-1.87.85.15,3.95,3.74,4,4.48,0-.18,1.26-1,1.43-1.24.61-.94.26-1.34.42-2.28.51-3.14.64-3.77,3.15-5.68,1.84-1.4,4.41-3,5.86-4.83a9.59,9.59,0,0,1,3.74-2.89c-.17.08,1.52,1,1.87,1,1.45,0,1.8-1.22,2.6-2.32H256c2.84-2.17-2.3-3.3,3.4-3.3,2.79,0,3,0,4.76-2-2.72,0-2.06,0-2.06-2.79,0-.46-.77-2.15-1.5-1.43-2,2-1.94-.36-2.81-1.68-1.14-1.69-2.37,0-2.84,1.08-.59,1.28-5.42,3.27-5.41,4.94,0,1-1.59.94-1.56-.15,0-1.64-5.6-3.2-5.69-3.83-.12-.85,2.79-3.12,5.33-3.12,1.17,0,.59-1.35,1-1.35,2.42,0,5.27-.75,6.59-2.7-.33,0-3.43,0-3.43,0,0-1.11-.47-1.79.8-1.79,3,0,3.86,2.33,7.13,2.33l-3.51,2.55c1.65,0,4.11,2.73,5.37,1.88,2.33-1.56.76-3,2.7-3.31a2.22,2.22,0,0,0,.95.59c.6.21,2.79.6,3.16,1.16s1.58,4.62.75,5c-1.36.56-5.33,4.86-2.29,5.93,2.34.83,2.95-.22,5-1.52s2.47-.77,4.65,0a14.08,14.08,0,0,1,3.11.22c1.85.66,1.71-.51,1.9-.44a5.11,5.11,0,0,0,3.22.05A53.49,53.49,0,0,0,263.27,169.1Z"/><path class="cls-9" d="M241.09,206.31,240,207.39c3.37,0,5.42,1.09,8.4,1.09C246.41,205.34,244.84,206.31,241.09,206.31Z"/><path class="cls-10" d="M252.2,209c-2.7-.08-2.83.33-4.48,2.18H252C253.23,211.21,253.05,209.05,252.2,209Z"/><path class="cls-11" d="M256,211.84c0-3.79-3.85,0,0,0Z"/><path class="cls-5" d="M283.59,80.05s-21.22,23.5-21.22,43.11,14.68,24.26,21.22,24.26,21.21-4.66,21.21-24.26S283.59,80.05,283.59,80.05Z"/><path class="cls-12" d="M270,130.89v0a14.23,14.23,0,0,1-.51-2.74c0-1.43,0-2.86.09-4.29a62.73,62.73,0,0,1,1.22-8.74,94.55,94.55,0,0,1,5.49-17.22c1-2.5,2.17-5,3.37-7.4.57-1.15,1.15-2.29,1.75-3.42a34.91,34.91,0,0,0,1.76-3.22l-.05,0S264,107.32,265,126.08a33.91,33.91,0,0,0,.38,3.62c.09.58.2,1.15.32,1.72a4.5,4.5,0,0,0,.3,1.42,2.64,2.64,0,0,0,2.09,1.29,1.55,1.55,0,0,0,1.7-.9A4.08,4.08,0,0,0,270,130.89Z"/><path class="cls-12" d="M272.78,136.15a2,2,0,0,0-1.38-.57,2.12,2.12,0,0,0-1.15.37,2,2,0,0,0-.94,2.21,2.07,2.07,0,1,0,3.47-2Z"/><path class="cls-5" d="M292.4,190.44c-1.15.18-2.31.31-3.36.5a37.3,37.3,0,0,1-8,.77c-1.29,0-2.84-.33-3.38-1.45a2.12,2.12,0,0,1,.82-2.5,7.75,7.75,0,0,1,2.75-1.1c2.67-.72,5.28-1.63,8-2.31,2.25-.58,4.93-1.48,7.21-.32a3.11,3.11,0,0,1,1.71,2.22,3.2,3.2,0,0,1-1.91,3.14A13.42,13.42,0,0,1,292.4,190.44Z"/><path class="cls-5" d="M273.1,172.85v-.23a.79.79,0,0,0-.49-.72c-.95-.22-.75,1.88-1.61.65-.23-.34-.51-2.84-.75-2.9a2.08,2.08,0,0,0-2.55,2.08,6.35,6.35,0,0,0,1.16,2.61c.61.91,1.41,1.72,2,2.65a11.86,11.86,0,0,1,1,2.53c1.31,3.84,2.6,8.29,5.69,11,.94.82,1.5,1,2.46.43a3.24,3.24,0,0,0,1.9-2.58,5.23,5.23,0,0,0-1.32-3.09c-1-1.38-2-2.9-3-4.2s-2.32-2.15-3.14-3.59a11.83,11.83,0,0,1-1.31-3.9C273.06,173.32,273.1,173.09,273.1,172.85Z"/><path class="cls-5" d="M302.68,190.19a11,11,0,0,1-8.48,5c-1.22-2.27-1-4.56-1.61-6.95-.18-.79-.41-1.56-.64-2.33-.38-1.28-2-4.63.13-4.94a24,24,0,0,1,3.06.2c1.37,0,2.67-.68,4.08-.65a5.26,5.26,0,0,1,4.12,1.81,5.8,5.8,0,0,1,.6,5.11A10.17,10.17,0,0,1,302.68,190.19Z"/><path class="cls-5" d="M213.07,196.23l1.94,2,1.58.26,1.61,1.62s-.81,1.06-.94.93a1.62,1.62,0,0,0-1.17-.41,4.8,4.8,0,0,0,1,2c.39.51,1.15,1.09.2,1.55a1.65,1.65,0,0,1-.83.13,3.37,3.37,0,0,1-1.95-.76,5.27,5.27,0,0,0-1.33-1,.74.74,0,0,1-.24-.11,5.92,5.92,0,0,1-.41-1.31,3.89,3.89,0,0,0-.33-.94l-1.6-2.3Z"/><path class="cls-5" d="M208.58,185.64c1.23,4,5.31,9.14,6.57,11.15a8.62,8.62,0,0,1-2.64,2.35c-1.33.76-1.43.67-2.47-.3a44.37,44.37,0,0,1-4.72-5.52c-3.66-4.77-7.32-8.28-6.11-14.94a29.8,29.8,0,0,1,1.68-5.26q1.31-3.37,2.63-6.75c.6-1.54,1.19-1.75,2.85-1.81,2.6-.1,5.57.1,7.19,2.13a5.73,5.73,0,0,1,1,4.49,13.57,13.57,0,0,1-1.74,4.38C211,178.77,207.36,181.66,208.58,185.64Z"/><path class="cls-5" d="M125.88,152.45a.74.74,0,0,0-.15.21c-.34.69-.11,1.25-.25,2-.06.34-.87.67-.35,1.16.19.19.72.56,1.13.94a5.07,5.07,0,0,1,1.21,2.54,35.75,35.75,0,0,1,0,10.88,1.33,1.33,0,0,1-.16.59,1.35,1.35,0,0,1-1,.44,28.12,28.12,0,0,0-5,1.28,10.36,10.36,0,0,0-4,2.26,4.68,4.68,0,0,0-1.43,4.19,3.71,3.71,0,0,0,2.15,2.54c2.65,1.07,5.6-1.88,7.63-3.26a49.15,49.15,0,0,0,5.46-4.3,2.18,2.18,0,0,0,.55-.66,2.21,2.21,0,0,0,.13-.89,107.72,107.72,0,0,0-.71-11.76c-.11-1.08-.78-2-.87-3-.06-.64.35-1.18.42-1.79a6,6,0,0,0-.13-2c-.3-1.16-1.46-1.63-2.43-2.13a1.24,1.24,0,0,0-.66-.2,1.85,1.85,0,0,0-1,.48A3.45,3.45,0,0,0,125.88,152.45Z"/><path class="cls-5" d="M126.57,180.06a33.17,33.17,0,0,0,5.37-5.11,4,4,0,0,0,.89-1.52,4.75,4.75,0,0,0,.06-1.46l-.57-8.52c0-.27,0-1.15-.2-1.31s-.59.06-.74.07-.54,0-.82,0a12,12,0,0,0-3.23.15.24.24,0,0,0-.18.09.42.42,0,0,0-.05.17,47.71,47.71,0,0,1-1,6.18,2.85,2.85,0,0,1-.59,1.34,5.18,5.18,0,0,1-1.47.78,20.2,20.2,0,0,1-3,1.14c-2.09.63-4.23,1-6.36,1.48a12.25,12.25,0,0,0-2.67.65c-2.3.65-4.68,1.35-6.49,2.9a5.4,5.4,0,0,0,3.49,9.62,27.85,27.85,0,0,0,12.87-3.57A38.22,38.22,0,0,0,126.57,180.06Z"/><polygon class="cls-5" points="113.13 259.93 109.29 260.05 108.96 242 108.28 229.85 117.31 229.85 116.11 242.3 113.13 259.93"/><path class="cls-5" d="M113.89,259.46a3.68,3.68,0,0,0-.33,1.84c0,.71,0,1.42.07,2.12a2.83,2.83,0,0,0,.23,1.26,5.29,5.29,0,0,0,.68.82,1.24,1.24,0,0,1,.35,1,1,1,0,0,1-.75.7,2.75,2.75,0,0,1-1.07,0l-1.3-.13a1.27,1.27,0,0,1-1-.46,1.45,1.45,0,0,1-.12-.63c-.13-1.69-2.14-2.71-2.1-4.24a3.65,3.65,0,0,1,.19-.87,8.26,8.26,0,0,0,.36-2.32c1.62.1,3.67-.1,5.2.35A2.77,2.77,0,0,0,113.89,259.46Z"/><polygon class="cls-5" points="97.45 258.94 93.69 258.17 97.81 240.88 98.26 228.83 108.43 230.62 104.79 242.81 97.45 258.94"/><path class="cls-5" d="M98.3,258.65a3.69,3.69,0,0,0-.74,1.72l-.43,2.08a2.92,2.92,0,0,0-.06,1.28,5.33,5.33,0,0,0,.47,1,1.18,1.18,0,0,1,.12,1,1,1,0,0,1-.89.51,3,3,0,0,1-1-.23l-1.24-.43c-.36-.12-.78-.3-.89-.67a1.43,1.43,0,0,1,0-.65c.26-1.67-1.46-3.13-1.07-4.61a3.12,3.12,0,0,1,.39-.8,8.22,8.22,0,0,0,.87-2.18c1.56.47,3.6.75,5,1.53A3.63,3.63,0,0,0,98.3,258.65Z"/><path class="cls-5" d="M115,173.35c1.85,1.93,2.25,5.45,3.16,8.05,1.08,3.08,2.16,6.16,3.08,9.3.47,1.6.9,3.2,1.26,4.83.3,1.35.23,2.71.41,4.1.86,6.81,1.69,13.63,2.22,20.48q.33,4.21.48,8.43a7.55,7.55,0,0,1-.62,4,45.79,45.79,0,0,0-7.21.24,112.6,112.6,0,0,1-20,0c-.77-.08-8.69-1-8.67-1.44.41-11.54.15-23,1.75-34.47.85-6.13,1.35-12.77,4.51-18.1a16.29,16.29,0,0,1,7.17-5.91c3.07-1.42,6.56-1.27,9.83-.81A4.44,4.44,0,0,1,115,173.35Z"/><path class="cls-5" d="M108.19,185.55a6.31,6.31,0,0,0,2.59.28c.07,0,.17-5.19.18-5.67,0-1-.1-2.21.82-2.84s2.85-.76,2.5-2.48a2.29,2.29,0,0,0-1.56-1.59,6.64,6.64,0,0,0-2.31-.24c-1,0-2,0-3,.06a13.63,13.63,0,0,0-5.8,1.22c-1.42.75-1.37,2.49-.67,3.78a2.19,2.19,0,0,0,.56.72,3.16,3.16,0,0,0,2.42.45,7.93,7.93,0,0,0,2.06-1.12c.47-.26,1.48-.6,1.89-.08s.1,1.53.12,2S107.89,185.45,108.19,185.55Z"/><path class="cls-5" d="M109.62,180.1c0-.26.07-1.51-.38-1.47a.3.3,0,0,0-.26.2,3.37,3.37,0,0,0-.14,1,1,1,0,0,0,.08.48.36.36,0,0,0,.4.21C109.51,180.52,109.59,180.3,109.62,180.1Z"/><path class="cls-5" d="M109.62,183.69c0-.26.07-1.5-.38-1.47a.34.34,0,0,0-.26.2,3.43,3.43,0,0,0-.14,1.06.94.94,0,0,0,.08.47.37.37,0,0,0,.4.22C109.51,184.11,109.59,183.89,109.62,183.69Z"/><path class="cls-5" d="M119.36,158.09c.48.11,1,1.54,1.17,2.06a4.79,4.79,0,0,0,.45,1.57,2.17,2.17,0,0,0,.22-1.54c-.06-.32-.33-.47-.42-.79a6.16,6.16,0,0,1-.08-1.22,1.12,1.12,0,0,0-.18-.61,1.18,1.18,0,0,0-.42-.32,2.48,2.48,0,0,1-.91-1.14,1.7,1.7,0,0,0-.22-.47.76.76,0,0,0-.23-.18l-.15-.18c-.36-.34-.92-.39-1.12-.89a2.18,2.18,0,0,1,0-.92c.2-3.79-2.94-3.64-4.85-4.19s-2.94-1.47-4.4.88-.62,3.66.24,5.81c.69,1.73.37,2.94.7,4.79.26,1.44,1.07,2.66,1.37,4.1.26,1.27.15,2.62.44,3.89s1.26,2.51,2.26,2.2a2,2,0,0,0,1.23,2.18c.78.16,1.58-.61,1.65-1.59.65.15,1.53.12,1.7-.67a6.15,6.15,0,0,0,0-.86c.08-1.2,1.32-1.57,2.29-1.62a3.73,3.73,0,0,1,.94-3.67c-.35-.16-.45-.72-.39-1.17a8.78,8.78,0,0,0,.22-1.33c0-1.29-1.43-1.89-1.78-3.11a3.14,3.14,0,0,1-.11-1A1.93,1.93,0,0,1,119.36,158.09Z"/><path class="cls-5" d="M95.22,155a1.66,1.66,0,0,1,.07.93c-.19.52-.93.63-1.35,1-1,.92.29,2.57,0,3.88s-2,2-1.9,3.29a6,6,0,0,0,.51,1.31c.15.44.11,1-.33,1.21a3.39,3.39,0,0,1,1.84,3.56c1.3,0,3,.18,3.31,1.38a4.9,4.9,0,0,0,.16.85c.35.78,1.54.71,2.39.5a2.14,2.14,0,0,0,2.46,1.4,1.81,1.81,0,0,0,1.29-2.31c1.41.2,2.49-1.14,2.68-2.44s-.17-2.64,0-3.94c.17-1.46,1.07-2.77,1.18-4.24.14-1.88-.47-3.06.18-4.86.8-2.24,1.66-3.71-.6-5.83a4.29,4.29,0,0,0-2.56-1.31c-.38,0-.74.09-1.1.05-.59-.06-1.1-.5-1.68-.09-.15.11-.26.26-.4.38a2.57,2.57,0,0,1-2.07.24,1.51,1.51,0,0,0-.79,0c-.69.26-.61,1.38-1.32,1.61-.86.28-1.26.32-1.74,1.16A3,3,0,0,0,95.22,155Z"/><path class="cls-5" d="M114.37,161.87l0-.08a25.6,25.6,0,0,1-.52-3.51c-.57-3.34-4.44-4.06-7.35-3.36-4,1-5,3.89-5.24,7.54,0,.45-.19,1-.64,1.06a3.08,3.08,0,0,1-.66-.18c-.58-.09-1,.54-1.09,1.12a2.49,2.49,0,0,0,.61,2c.49.53,1,.47,1.58.71.94.38.39-.1.91.79a7.72,7.72,0,0,0,2.3,3c1.16.78,1.18,1.1,1.24,2.57a2.4,2.4,0,0,0,.86,2,2.33,2.33,0,0,0,1.14.29,11,11,0,0,0,1.62,0,2,2,0,0,0,1.17-.38,2.15,2.15,0,0,0,.44-1.81c-.13-1.77-.1-1.55,1.16-2.49,1.77-1.31,3.94-4.13,3.56-6.44A18.27,18.27,0,0,0,114.37,161.87Z"/><path class="cls-5" d="M100.87,161.53c-.44.33-1,.56-1.15,1.06a7.17,7.17,0,0,0,0,.93,1.21,1.21,0,0,1-1,1c-.94.2-1.66-.59-2.07-1.27a3.69,3.69,0,0,0-3.11-1.68c-.66,0-1.3.2-2,.27-1.24.14-3-.37-3.54-1.5a.85.85,0,0,1-.14-.45.36.36,0,0,1,.25-.36c.2,0,.4.1.58.19a2.72,2.72,0,0,0,2.12-.34c.5-.39.28-1.14.2-1.75a3.23,3.23,0,0,1,2.68-3.43c.52-.09,1.07-.07,1.59-.18a8.35,8.35,0,0,0,3-1.85,3.37,3.37,0,0,1,3.4-.67,10.28,10.28,0,0,0,.91.53c1.24.49,2.32-.09,3.55.52s2.85,1.9,2.77,3.2c0-.4-.6-.57-1-.44s-.78.41-1.21.35-.93-.71-1.5-.76a1.18,1.18,0,0,0-1,.73,2.68,2.68,0,0,1-.76,1.07c-.52.34-1.29.2-1.8.56s-.53,1.22-.38,1.89a2.48,2.48,0,0,1,0,2A1.67,1.67,0,0,1,100.87,161.53Z"/><path class="cls-5" d="M113.44,156.51c.9.18,1.26,1.29,1.22,2.21a1.45,1.45,0,0,0,.22,1.09,1.76,1.76,0,0,0,.53.31,1.9,1.9,0,0,1,.91,2.27,1.82,1.82,0,0,0,.66-2.29c-.13-.26-.33-.48-.46-.74a6.57,6.57,0,0,1-.3-2.67,1.71,1.71,0,0,0-.33-1,2.87,2.87,0,0,0-.85-.54,4.18,4.18,0,0,1-1.82-1.92,2.8,2.8,0,0,0-.42-.78,1.94,1.94,0,0,0-1.33-.46,1.39,1.39,0,0,0-1.18.3c-.13.14-.2.34-.34.47-.85.8-1.87-.25-1.72,1.49.09,1.08.16.92,1.06.91s1.4-.59,2.23.11c.39.33.25.86.72,1.14S113.09,156.42,113.44,156.51Z"/><path class="cls-5" d="M133.46,172.8c0-.28.17-.64.46-.66s.5.45.52.81a2.52,2.52,0,0,0,1-2.87,1.9,1.9,0,0,1,2.32.26,3.06,3.06,0,0,1,.85,2.32A5.86,5.86,0,0,1,137,176c-.58.71-1.16,1.42-1.69,2.17-.15.21-.47,1-.7,1.07-.52.2-2-.91-2.48-1.2,0,0-.07,0-.08-.08s0-.16.1-.22a2.93,2.93,0,0,0,.87-1.37,7.31,7.31,0,0,0,0-1.62C133,174.14,133.34,173.45,133.46,172.8Z"/><path class="cls-5" d="M127.42,187.23c3.2-2.46,6.38-5.07,8.34-8.57a.87.87,0,0,0,.16-.56.9.9,0,0,0-.32-.46q-1.87-1.78-3.9-3.39a53.87,53.87,0,0,1-5.85,5.08,23,23,0,0,1-8.18,2.42c-3.73.35-7.44-.26-11.16-.42-2.57-.12-6-.44-7.24,2.38a5.85,5.85,0,0,0,.17,4.69c1.74,3.94,6.48,5.84,10.77,5.57a25.22,25.22,0,0,0,8.89-2.59c2.55-1.18,5.23-1.8,7.48-3.51Z"/><path class="cls-5" d="M140,113.07a21.48,21.48,0,0,1-2.26,16.3,23.65,23.65,0,0,1-15.3,11.16,19.72,19.72,0,0,1-5,.37A22.66,22.66,0,1,1,140,113.07Z"/><path class="cls-5" d="M106.16,97.67a49.63,49.63,0,0,1,12.09-3,.46.46,0,0,0,.32-.72l-9.76-13.4a.46.46,0,0,0-.82.2l-2.44,16.41A.46.46,0,0,0,106.16,97.67Z"/><path class="cls-5" d="M120.63,94.72a49.82,49.82,0,0,1,11.73,4.18.45.45,0,0,0,.66-.43l-.73-16.55a.46.46,0,0,0-.8-.29L120.4,94A.45.45,0,0,0,120.63,94.72Z"/><path class="cls-5" d="M134.62,100.57A50.46,50.46,0,0,1,141.35,111a.45.45,0,0,0,.78.07l9.53-13.56a.46.46,0,0,0-.45-.71l-16.33,3A.44.44,0,0,0,134.62,100.57Z"/><path class="cls-5" d="M141.7,113.74a50,50,0,0,1-.28,12.44.45.45,0,0,0,.61.5l15.48-5.9a.45.45,0,0,0,0-.84l-15.19-6.66A.46.46,0,0,0,141.7,113.74Z"/><path class="cls-5" d="M139.48,129.42a49.72,49.72,0,0,1-8.42,9.17.46.46,0,0,0,.13.78l15.54,5.77a.45.45,0,0,0,.57-.61l-7-15A.45.45,0,0,0,139.48,129.42Z"/><path class="cls-5" d="M103.67,98.94a49.82,49.82,0,0,0-7.18,10.17.46.46,0,0,1-.79,0l-8.93-14a.46.46,0,0,1,.49-.69l16.17,3.71A.45.45,0,0,1,103.67,98.94Z"/><path class="cls-5" d="M95.28,111.41a49.8,49.8,0,0,0-.87,12.42.46.46,0,0,1-.66.44L78.88,117a.46.46,0,0,1,.06-.84l15.75-5.22A.45.45,0,0,1,95.28,111.41Z"/><path class="cls-5" d="M94.89,126.31a50.47,50.47,0,0,0,7,10.26.45.45,0,0,1-.23.75l-16.19,3.54a.45.45,0,0,1-.48-.69l9.07-13.89A.45.45,0,0,1,94.89,126.31Z"/><path class="cls-5" d="M103.89,138.17a50.39,50.39,0,0,0,11.72,4.22.46.46,0,0,1,.24.75l-11.09,12.32a.45.45,0,0,1-.79-.29l-.73-16.57A.45.45,0,0,1,103.89,138.17Z"/><path class="cls-5" d="M129.65,139.58a49.82,49.82,0,0,1-12.07,3,.45.45,0,0,0-.32.72l9.8,13.37a.45.45,0,0,0,.81-.21l2.4-16.42A.46.46,0,0,0,129.65,139.58Z"/><polygon class="cls-5" points="338.61 224.95 338.61 262.42 344.27 262.42 347.81 239.79 350.99 222.47 338.61 224.95"/><polygon class="cls-5" points="338.61 262.42 335.43 265.6 336.85 267.72 343.21 265.6 343.21 262.42 338.61 262.42"/><polygon class="cls-5" points="360.82 263.05 359.64 267.7 355.75 269.12 353.63 268.06 356.92 262.81 360.82 263.05"/><polygon class="cls-5" points="350.99 221.06 353.11 237.32 355.94 263.48 361.59 263.13 361.59 242.97 364.42 222.47 350.99 221.06"/><path class="cls-5" d="M348.53,170c-5.77,1.32-9.64,6-10.68,12.33-1.17,7.09-2.93,14.15-4.22,21.26-1.45,8-2.32,16-3.08,24.11q10.76,1,21.56,1.12c5.57.08,11.24,0,16.58-1.71-1.08-4.6-.67-9.3-.74-14-.06-4.21-.24-8.42-.64-12.61a151.91,151.91,0,0,0-2.25-17.4,36.08,36.08,0,0,0-2.51-8.27c-1-2-3.83-3.27-5.76-4.38a9.9,9.9,0,0,0-5.13-.83A15,15,0,0,0,348.53,170Z"/><path class="cls-5" d="M343,156.09c.92-8.11,11-7.46,14.34-1.2a12,12,0,0,1,1,8,6.47,6.47,0,0,1-1.81,3.39c-.43.39-1.29.59-1.63,1-.55.64-.32,2-.21,2.76a5.13,5.13,0,0,1-3.59.48.6.6,0,0,1-.66-.5c-.32-.95-.22-1.21-1.09-1.58a15.94,15.94,0,0,1-2.49-.92,8.28,8.28,0,0,1-3.25-4.12A15.49,15.49,0,0,1,343,156.09Z"/><path class="cls-5" d="M347.48,152.19s6.55-1,7.6,1.43c1.58,3.71,2.89,6.1,3.59,8.41l3.13-4.27-.47-8s-2.91-5.46-6.3-5.19a86.25,86.25,0,0,0-10,1.92L341,150l-3.56,1.23,5.61,9.86S341.42,153,347.48,152.19Z"/><path class="cls-5" d="M370.83,127.15a2.57,2.57,0,0,0-.26-.71c-.13-.25-.51-1-1-1.9Z"/><path class="cls-5" d="M351.61,102l4.81,1.43,6.22,1.85,4.82,1.43a3,3,0,0,0,3.82-2.3l1.11-5c.39-1.78,1-4.68,1.43-6.46l1.11-5c.4-1.77-.73-2.36-2.49-1.3l-3,1.82c-1.11-1.93-2.21-3.85-2.64-4.55-1-1.6-2.84-2.82-6.52-2.8l-14.55.09,6.08,10.92a2.13,2.13,0,0,1,.38.54c.28.6,1.39,2.67,2.48,4.71l-2.95,1.78C349.94,100.15,349.89,101.43,351.61,102Z"/><path class="cls-5" d="M334.76,84.78c-1.56,2.42-5.51,8.87-5.51,8.87a3,3,0,0,0,1,4.21l9.71,5.83a3.06,3.06,0,0,0,4.19-1.09l6-10c.52-.89,1.15-1,1.66-.49l-6.08-10.92-3.5,0C339.68,81.17,336.79,81.62,334.76,84.78Z"/><path class="cls-5" d="M317.6,125.57c1.09,2.17,4.12,7.76,6.34,11.86l6.88-11.51c.81-1.41,2.31-4,3.56-6.21l3.52,2c1.79,1,2.89.4,2.46-1.37l-1.23-5c-.44-1.77-1.16-4.66-1.59-6.43l-1.23-5a3,3,0,0,0-3.88-2.21l-4.78,1.56-6.18,2-4.77,1.55c-1.7.56-1.63,1.84.16,2.86l2.59,1.47c-1.32,2.63-2.89,5.73-3.28,6.62C315.46,119.43,315.9,122.2,317.6,125.57Z"/><path class="cls-5" d="M330.82,125.92l-6.88,11.51c1.23,2.27,2.22,4.09,2.48,4.6.73,1.41,1.77,4.17,8.33,4.14l9.54-.06a3.08,3.08,0,0,0,3-3.12l-.07-11.53a3.08,3.08,0,0,0-3.05-3.09l-13,.08c-1.18,0-1.33-.79-.92-1.53Z"/><path class="cls-5" d="M370.83,127.15l5.68,11.62c2-3.75,5.37-10.27,6.75-13.08,1.85-3.77,2.37-7,1.52-8.76s-5.06-10.07-5.06-10.07a2.75,2.75,0,0,0-4-1.13l-9.64,6.07a3.33,3.33,0,0,0-1.11,4.34l4.56,8.4c.51.94.89,1.65,1,1.9A2.57,2.57,0,0,1,370.83,127.15Z"/><path class="cls-5" d="M375.11,141.37c.22-.39.73-1.34,1.4-2.6l-5.68-11.62c.12.67-.22,1.13-1,1.14l-5.88,0,0-3.6c0-2.09-1.09-2.77-2.38-1.51l-3.62,3.55-4.68,4.59-3.62,3.55a3.15,3.15,0,0,0,0,4.54l3.68,3.48,4.76,4.5,3.68,3.49c1.31,1.24,2.37.54,2.35-1.56l0-3.42,4.5,0C372.66,145.88,374.21,142.92,375.11,141.37Z"/><path class="cls-5" d="M331.34,151.52l.84-2.62,1.28-1c.23-.69,1.18-2.4.13-2.71-.82-.24-.93.6-1.62.73a6.55,6.55,0,0,1-2.54-.57,1.22,1.22,0,0,0-.73-.07c-.69.24-.11,1.68,0,2.14a4.2,4.2,0,0,1,.13,1l-.39,2.78Z"/><path class="cls-5" d="M332.39,162.87c-1.8-3.24.27-9.68.55-12.8a8.51,8.51,0,0,0-3.42-.89c-1.54-.07-1.58,0-2.07,1.4a43.46,43.46,0,0,0-1.69,7.06c-1.1,5.9-2.76,10.7,1.35,16.08a28.67,28.67,0,0,0,3.88,3.91c1.54,1.38,3.08,2.77,4.63,4.14.67.58,1.86,2.11,2.76,2.17a2,2,0,0,0,1.26-.56c4.35-3.35,9-7.12,10.27-12.47a.87.87,0,0,0-.05-.71.91.91,0,0,0-.66-.25,32.53,32.53,0,0,1-15.77-5.9A3.47,3.47,0,0,1,332.39,162.87Z"/><path class="cls-5" d="M374.35,145.53a4.15,4.15,0,0,0-.09,1l.52,2.76-2.91.42-1-2.57-1.33-.89-.55-1.48c-.14-.37-.25-.47,0-.74a1.52,1.52,0,0,1,1.18-.39c.25.1.37.38.49.62a1.29,1.29,0,0,0,.66.68,1.46,1.46,0,0,0,1.09-.16,4.73,4.73,0,0,0,1.78-1.37c.05-.07.11-.14.18-.13a.2.2,0,0,1,.13.11C375,144.12,374.41,144.77,374.35,145.53Z"/><path class="cls-5" d="M370.68,160.74a9.2,9.2,0,0,0,.88-2.62c.5-3.09-.93-6.7-1.36-9.78a8.54,8.54,0,0,1,3.37-1.07c1.53-.14,1.58,0,2.14,1.3a45.26,45.26,0,0,1,2,7c1.37,5.85,3.27,10.56-.58,16.13a29.15,29.15,0,0,1-3.68,4.1c-3.27,3.18-6,6.39-9.59,9.17a2.94,2.94,0,0,1-1.77.8c-1.11,0-1.73-1.26-2.13-2.3-.94-2.46-1.87-4.93-2.81-7.39-.57-1.48-1.13-3-1.6-4.47a1.36,1.36,0,0,1,0-1.1,1.34,1.34,0,0,1,.66-.48c3-1.33,6.39-1.83,9.21-3.54A14.8,14.8,0,0,0,370.68,160.74Z"/><path class="cls-5" d="M165.85,171a7.29,7.29,0,0,0-3.41-.84,6.67,6.67,0,0,0-4.27,1.83,21.92,21.92,0,0,0-6.17,9.81,83.37,83.37,0,0,0-2.52,33.55,1.9,1.9,0,0,0,1.71,1.83,39.27,39.27,0,0,0,5.6.68c7,.45,13.89.63,20.84.83a1.44,1.44,0,0,0,1.1-.23,1.7,1.7,0,0,0,.48-1.42,82.88,82.88,0,0,0-1.17-13.9c-.64-3.76-1.54-7.5-2.26-11.22a63.18,63.18,0,0,1-.95-8.55c-.09-1.83.27-3.74-.44-5.48C172.79,173.91,169.58,172.48,165.85,171Z"/><path class="cls-5" d="M178.86,152.28a17.45,17.45,0,0,0-4.11-2.43,10.22,10.22,0,0,0-3.83-1.07,8.48,8.48,0,0,0-5.88,1.93c-2,1.71-3,4-4.13,6.4a34.1,34.1,0,0,0-1.87,5.63,10.64,10.64,0,0,0-.44,2.84,1.9,1.9,0,0,0,1.06,1.67,34.13,34.13,0,0,0,10.48,4.7,8.31,8.31,0,0,0,3.66.31c1.48-.25,2.87-.47,4.35-.66a1.74,1.74,0,0,0,.9-.29,1.92,1.92,0,0,0,.65-.85c1.16-2.7,2.36-5.18,2.68-8.19a12.74,12.74,0,0,0-1.93-8.34A6.94,6.94,0,0,0,178.86,152.28Z"/><path class="cls-5" d="M178.43,164.09a3.86,3.86,0,0,0,.54-1.58c.08-.82,0-1.93-1.09-1.83,0,0-.1.07-.15.11s0-.22,0-.33a19,19,0,0,0,.24-3.54,6.52,6.52,0,0,0-.85-2.27,4.08,4.08,0,0,0-.91-1.34,7.72,7.72,0,0,0-5.53-2,6.11,6.11,0,0,0-3.71,1.57c-.31.23-2.46,1.93-2,2.79a1.89,1.89,0,0,0-2.28,1,3.29,3.29,0,0,0-.49,1.58,1.55,1.55,0,0,0,.55,1.29,7.09,7.09,0,0,0-.77,2.8,6.52,6.52,0,0,0,1.73,4.49,5.45,5.45,0,0,1,1.44,2.3,5.72,5.72,0,0,1,0,1.49,2.27,2.27,0,0,0,0,1.1,2.32,2.32,0,0,0,1.44,1.12,2.36,2.36,0,0,0,2.13,0c.66-.41.61-1.14,1.08-1.68.89-1.05,2.24-1.34,3.44-1.86a8.48,8.48,0,0,0,3.36-2.59,6.45,6.45,0,0,0,.9-2A1.81,1.81,0,0,0,178.43,164.09Z"/><path class="cls-5" d="M167.19,154.3s0,0,0,.06c.63-.27,1-.76,1.76-.84a5,5,0,0,1,2.08.24c2.48.7,4.66,1.55,6.25,3.72a13.91,13.91,0,0,0,1.28-2.56,1.38,1.38,0,0,0,.12-.75.88.88,0,0,0-.35-.48,17.24,17.24,0,0,0-6.54-3.31,3.49,3.49,0,0,0-3.39.53C167.44,151.78,167.5,153.13,167.19,154.3Z"/><path class="cls-5" d="M177.43,162.83a3.29,3.29,0,0,1-.17.67,9.68,9.68,0,0,1-3.86,5.08c.5-.12,1.12.41,1.47.55a10.18,10.18,0,0,0,2.35.57.59.59,0,0,0,.39,0,.65.65,0,0,0,.29-.32,22.13,22.13,0,0,0,2.35-5.45,22.66,22.66,0,0,0,.05-6.63,3.18,3.18,0,0,0-3-3.43c.52.26.68,1.32.71,1.72a17.7,17.7,0,0,1,0,2.21A34.16,34.16,0,0,1,177.43,162.83Z"/><path class="cls-5" d="M164.61,157.29a4,4,0,0,0-.31.62,9.93,9.93,0,0,0-.43,6.54c-.3-.41-1.12-.43-1.48-.56a10.41,10.41,0,0,1-2.16-1.09.57.57,0,0,1-.28-.29.72.72,0,0,1,0-.46,22,22,0,0,1,1.82-5.82,22.55,22.55,0,0,1,4.22-5,3.09,3.09,0,0,1,4.37-.63c-.54-.1-1.25.61-1.52.89a20.34,20.34,0,0,0-1.34,1.66A39,39,0,0,0,164.61,157.29Z"/><path class="cls-5" d="M175.62,228c-.11,5.18.46,9.9.22,15.19s-1.39,11-1.8,16.31a44,44,0,0,1-4.4-.65c-.46-4.75-.77-11.13-1.28-15.5s-1.21-6.56-1.69-10.52C169.67,231.27,172.62,229.57,175.62,228Z"/><path class="cls-5" d="M174.43,258.94a2.73,2.73,0,0,0,.21,2c.41.6,1.15.81,1.47,1.48a1.68,1.68,0,0,1,.06.94,1.28,1.28,0,0,1-.27.7,1.68,1.68,0,0,1-1.1.46,6.4,6.4,0,0,1-1.9.1,6.63,6.63,0,0,1-2.86-1.38,2.9,2.9,0,0,1-1.41-2,2.67,2.67,0,0,1,.18-.9,11.18,11.18,0,0,0,.33-2.37l5.44.28C174.54,258.45,174.47,258.68,174.43,258.94Z"/><path class="cls-5" d="M160.69,228.31c-1,5.34-1.09,10.17-2.73,15.54s-4.81,10.76-7.31,15.9a32.54,32.54,0,0,1-3.85-2.08,115.9,115.9,0,0,0,3.88-15.44c.62-4.43.27-6.63.46-10.66C154.33,230.62,157.5,229.44,160.69,228.31Z"/><path class="cls-5" d="M151.24,259.34a2.86,2.86,0,0,0-.57,2c.17.73.8,1.2.9,1.95a1.79,1.79,0,0,1-.25.94,1.22,1.22,0,0,1-.46.58,1.56,1.56,0,0,1-1.18.07,6.08,6.08,0,0,1-1.83-.56,6.52,6.52,0,0,1-2.25-2.3,2.87,2.87,0,0,1-.62-2.43,2.7,2.7,0,0,1,.49-.8,12.84,12.84,0,0,0,1.22-2.17q2.48,1,5,2C151.54,258.89,151.37,259.1,151.24,259.34Z"/><path class="cls-5" d="M180.89,215.09c0-1.41,0-2.81,0-4.22a2.17,2.17,0,0,0-.14-.88,2.28,2.28,0,0,0-.89-.85,9.89,9.89,0,0,1-4.2-4.72,34,34,0,0,1-1.85-5.8c-.45-1.72-1.21-6.75-2.06-8.74-.41-.94-.23.05-.53-.48a51.34,51.34,0,0,1,1.4-14.37c.19-.78.38-.66.13-1.44a6.71,6.71,0,0,0-1.66-1,58.66,58.66,0,0,0-3.43,15.77c-2.3-.53-4.64-1-6.94-1.59.23-5.72,1.45-11.22,2.45-16.85a5.84,5.84,0,0,0-1.94-.19c-.64.56-.45.54-.69,1.36a121.46,121.46,0,0,0-3.39,15,2.6,2.6,0,0,1-.26,0c-.3,0-.53-.11-.79.14a1.76,1.76,0,0,0-.43,1c-.58,2.69-1,5.42-1.47,8.15-.23,1.33-.42,2.7-.78,4a24.76,24.76,0,0,1-4.3,9.17,5.19,5.19,0,0,0-.79,1.07A4.39,4.39,0,0,0,148,211c-.13,1.9-.13,3.9-.11,5.78.1,10.43.75,20.69-.83,31-.16,1.07-.35,2-.53,3.2-.12.77-.6,2.19-.15,3,.24.45,1,.53,1.41.7.56.25,1.05.41,1.58.6,1.07.39,2.11.73,3.15,1.17A129.73,129.73,0,0,0,165,236c.67,6.55,1.7,13,2.52,19.58a30.47,30.47,0,0,0,6,.27c1.42-.61,1.28-2.15,1.71-3.61,1.32-4.52,2.51-9.07,3.39-13.7A129.45,129.45,0,0,0,180.89,215.09Z"/><path class="cls-5" d="M172.36,146.52l.24,0c.27,0,.66-.33.59-.59-.22-.87-1.69-.81-.95-1.83.2-.28,2.24-.74,2.25-1.06a2.42,2.42,0,0,0-2.55-2.71c-1,.06-1.58.9-2.22,1.53-1,1-1.73,2.15-2.76,3.09a.52.52,0,0,0-.2.32.73.73,0,0,0,.09.4c.49,1.09.92,2.05,2.18,2.32.17,0,.3-.09.45-.17.4-.24.78-.52,1.18-.76a3.29,3.29,0,0,1,1-.45A4.49,4.49,0,0,1,172.36,146.52Z"/><path class="cls-5" d="M156.32,152.3c.56-.51,1.21-.83,2.08-1.46,1.06-.76,7.51-6.33,7.67-6.33,3.08-.14,2.47,2.89,4.74,3.44-2.24,2.22-4.29,3.73-6.59,6-4,3.91-5.6,6.61-4.34,12.41.35,1.62,1.38,2.77.49,4.43-.34.62-1,.95-1.45,1.52-2.93,3.72-4.16,8.17-6.08,12.44-.15.32-.44.52-.76.32-.12-.07-.16-.25-.2-.39-.37-1.43-.58-2.95-.9-4.37s-1.08-2.55-1.12-4a62,62,0,0,1,0-9C150.54,161.47,151.9,156.37,156.32,152.3Z"/><path class="cls-5" d="M180.6,149.41l-.18-.19c-.18-.23-.34-.71-.11-.9.75-.63,1.87.62,1.76-.88,0-.41-1.74-2.23-1.57-2.58.85-1.79,2.46-1.6,3.7-.51a5.18,5.18,0,0,1,1.2,3c.33,1.57.32,3.11.58,4.67a.51.51,0,0,1-.36.67c-1.1.53-2,.95-3.17.29-.16-.09-.2-.3-.26-.47-.19-.47-.34-1-.51-1.46a4.18,4.18,0,0,0-.52-1.06A7.53,7.53,0,0,0,180.6,149.41Z"/><path class="cls-5" d="M189,165.3c-.05-.68-.37-1.42-.48-2.52-.13-1.34-1.44-10.39-1.56-10.5-2.31-2.25-3.82.54-5.94-.58.43,3.16,1,6,1.16,9.21.33,5.57-.42,8.33-5,11.74a23.12,23.12,0,0,1-2.78,1.33c-1,.57-1.09.57-1.21,1.7-.18,1.8,0,3.73-.07,5.63a15.85,15.85,0,0,0,.78,6.22.82.82,0,0,0,.39.46.31.31,0,0,0,.33-.05,30.87,30.87,0,0,0,5-3.94c1.75-1.62,3.56-2.41,5-4.67C187.44,175.09,189.36,170.68,189,165.3Z"/><path class="cls-5" d="M188.73,121.54c-8,6.18-13.74,20.39-17,29.42l5.86,2.27c2.92-10.31,7-21.35,13.89-29.67Z"/><path class="cls-5" d="M230.65,99.64c-9.62-2.06-23.36-2.71-31.8,2.14s-10,13.2-10.33,21.87c7.6,4.16,15.58,7,24.06,2.26S227.52,109,230.65,99.64Z"/><path class="cls-5" d="M188.64,123.58a22.41,22.41,0,0,0,2,1.19l24.47-16.28-26.48,12.76C188.61,122,188.59,122.8,188.64,123.58Z"/><path class="cls-5" d="M160.82,93.92c-1.78,8.64-2.3,20.81,2,28.37s11.79,8.91,19.52,9.15c3.68-6.8,6.25-13.92,1.92-21.47S169.18,96.73,160.82,93.92Z"/><path class="cls-5" d="M182.31,131.34c.39-.57.72-1.18,1.06-1.79l-14.61-21.79q5.75,11.8,11.47,23.6C180.92,131.37,181.62,131.39,182.31,131.34Z"/><path class="cls-5" d="M188.64,123.58c12.54,2.35,26.83-.67,35.52-10.38C216.91,128.23,203,132.76,188.64,123.58Z"/></g></g></svg>